<?xml version="1.0" encoding="UTF-8"?>
<!-- Uploaded to: SVG Find, www.svgrepo.com, Generator: SVG Find Mixer Tools -->
<svg width="800px" height="800px" version="1.1" viewBox="144 144 512 512" xmlns="http://www.w3.org/2000/svg">
 <defs>
  <clipPath id="a">
   <path d="m148.09 510h503.81v141.9h-503.81z"/>
  </clipPath>
 </defs>
 <g clip-path="url(#a)">
  <path d="m177.61 624.35h388.38v9.3477c0 4.7539 1.9102 9.3125 5.3047 12.641 3.3945 3.332 7.9844 5.1602 12.738 5.0703s9.2734-2.0859 12.539-5.5391l49.82-52.641c3.1094-3.2891 4.8438-7.6445 4.8438-12.172s-1.7344-8.8828-4.8438-12.172l-49.82-52.645c-3.2656-3.457-7.7852-5.4531-12.539-5.543-4.7539-0.089844-9.3438 1.7383-12.738 5.0703s-5.3047 7.8867-5.3047 12.641v9.3477h-388.38c-7.8242 0.007813-15.328 3.1211-20.863 8.6562-5.5352 5.5352-8.6484 13.039-8.6562 20.863v27.555c0.007812 7.8242 3.1211 15.328 8.6562 20.863 5.5352 5.5352 13.039 8.6484 20.863 8.6562z"/>
 </g>
 <path d="m340.41 235.04 52.625 55.656c3.2656 3.457 7.7852 5.4531 12.539 5.543 4.7539 0.085937 9.3438-1.7383 12.738-5.0703 3.3945-3.3281 5.3047-7.8828 5.3047-12.641v-10.355c35.77 6.1953 67.641 26.27 88.676 55.852 21.039 29.582 29.535 66.277 23.648 102.1-5.8906 35.816-25.691 67.859-55.094 89.148-2.0234 1.5273-2.8516 4.168-2.0664 6.5781 0.78125 2.4102 3.0078 4.0547 5.543 4.0977h64.945c2.7227 0.003906 5.0938-1.8633 5.7383-4.5078 1.5625-6.4531 5.2578-12.191 10.484-16.289 5.2266-4.0938 11.68-6.3086 18.32-6.2812 5.1641 0 10.238 1.3711 14.695 3.9805 1.4336 0.82422 3.1484 1.0156 4.7305 0.52344 1.582-0.48828 2.8867-1.6211 3.5977-3.1133 14.184-30.129 21.508-63.027 21.457-96.328-0.25-56.387-21.254-110.71-59.008-152.59s-89.609-68.395-145.67-74.473v-9.6484c0-4.7539-1.9102-9.3086-5.3047-12.641-3.3945-3.3281-7.9844-5.1562-12.738-5.0664-4.7539 0.089844-9.2734 2.0859-12.539 5.5391l-52.602 55.621c-3.1445 3.2734-4.9062 7.6367-4.9102 12.18-0.003906 4.543 1.7461 8.9102 4.8867 12.188z"/>
 <path d="m210.46 525.95h105.13c2.5352-0.039063 4.7617-1.6875 5.5469-4.0938 0.78516-2.4102-0.046875-5.0547-2.0703-6.5781-26.91-19.52-45.848-48.117-53.312-80.508-7.4648-32.395-2.9531-66.395 12.699-95.723 15.656-29.324 41.395-51.996 72.465-63.82 1.8242-0.71875 3.1797-2.2969 3.6133-4.2109 0.4375-1.9141-0.10156-3.9219-1.4375-5.3594l-21.293-22.523c-5.2305-5.4766-8.1406-12.766-8.1172-20.34 0.023438-7.5703 2.9727-14.844 8.2383-20.289l6.5469-6.9258c1.7852-1.9648 2.0547-4.8789 0.64844-7.1328-1.4023-2.2578-4.1367-3.3047-6.6875-2.5664-44.449 13.738-83.637 40.742-112.3 77.391-28.664 36.645-45.434 81.184-48.062 127.63-2.6289 46.449 9.0117 92.594 33.359 132.24 1.0742 1.7461 2.9766 2.8086 5.0273 2.8086z"/>
</svg>