<svg width="1541" height="632" viewBox="0 0 1541 632" fill="none" xmlns="http://www.w3.org/2000/svg">
<path d="M26.8999 613.5C71.8999 502.5 194.2 425.1 317.4 429.7C416.1 433.4 515.1 484 609.5 455.3C678.4 434.3 727.5 374.8 760.3 312.6C793.1 250.4 814.1 182.6 851.2 122.7C888.3 62.8001 946.9 9.3001 1018.7 2.0001C1079.4 -4.0999 1137.7 23.6001 1190.8 52.4001C1243.9 81.2001 1298.7 112.7 1359.6 115.3" stroke="#4E5FFF" stroke-miterlimit="10"/>
<path d="M25.7002 609.8C53.2002 544.3 109.1 492.4 173.7 464.2C212.8 447.2 255 438.6 298.8 438.6C304.3 438.6 309.8 438.8 315.3 439C360.9 441.3 406.9 451.7 452 459.5C503.9 468.4 555.1 473.8 605.5 459.1C660 443.4 702.7 408.7 736 364.6C745.5 352 754.1 338.6 761.9 325C776.7 298.9 789.1 271.2 801.1 243.5C817.4 205.8 833.1 167.9 854.4 132.7C857.1 128.2 859.9 123.8 862.9 119.3C888.5 81.0002 923.3 46.6002 964.7 27.9002C983.5 19.4002 1003.5 14.2002 1024.4 12.8002C1063.5 10.3002 1101.6 21.5002 1138.4 36.6002C1159.1 45.1002 1179.2 54.7002 1198.7 64.2002C1215.9 72.6002 1233.2 81.0002 1250.7 88.5002C1288.4 104.8 1326.9 117.3 1368.2 117" stroke="#525FFF" stroke-miterlimit="10"/>
<path d="M24.3999 606.1C52.4999 541.1 110.3 491.6 174 467.3C212.5 452.6 253.3 446.7 296.8 447.8C302.2 447.9 307.7 448.2 313.1 448.5C358.4 451.4 404.4 460.3 449.1 466.5C500.4 473.7 551.1 476.9 601.5 463C656.9 447.6 700.6 418.2 735.9 376C746 364 755.2 350.9 763.4 337.3C779 311.5 792.1 283.4 804.3 255.3C820.9 217.1 836.4 178.4 857.6 142.5C860.3 137.9 863.1 133.4 866.1 128.9C891.7 89.8002 927.2 54.6002 969.5 36.8002C988.8 28.7002 1009 24.2002 1030.1 23.6002C1069.5 22.4002 1107.6 35.0002 1145 50.0002C1166 58.4002 1186.7 67.5002 1206.6 76.1002C1224.2 83.7002 1241.8 91.1002 1259.4 97.6002C1297.4 111.5 1335.8 121.3 1376.7 118.9" stroke="#565FFF" stroke-miterlimit="10"/>
<path d="M23.2002 602.4C52.0002 538 111.5 490.8 174.4 470.3C212.4 457.9 251.8 454.7 294.8 456.8C300.2 457.1 305.6 457.4 311 457.8C356 461.2 402.1 468.8 446.4 473.4C497.2 478.8 547.3 480.1 597.6 466.8C653.9 451.9 698.7 427.6 735.9 387.4C746.6 375.9 756.3 363.2 765 349.7C781.5 324.1 795.2 295.8 807.6 267.3C824.5 228.5 839.7 189.1 860.8 152.5C863.5 147.8 866.3 143.2 869.3 138.6C894.9 98.7 931.1 62.7 974.4 45.8C994.1 38.1 1014.6 34.4 1035.9 34.5C1075.5 34.7 1113.8 48.5 1151.8 63.4C1173.2 71.7 1194.3 80.2 1214.7 88C1232.6 94.8 1250.5 101.2 1268.4 106.6C1306.8 118.2 1345 125.2 1385.6 120.6" stroke="#5A5FFF" stroke-miterlimit="10"/>
<path d="M21.8999 598.6C51.3999 534.8 112.7 489.9 174.7 473.3C212.2 463.3 250.1 462.7 292.7 465.9C298 466.3 303.4 466.8 308.8 467.2C353.5 471.2 399.6 477.3 443.5 480.4C493.7 484.1 543.3 483.3 593.5 470.7C650.7 456.3 696.5 437.1 735.7 398.8C747 387.9 757.3 375.4 766.5 362.1C783.9 336.8 798.2 308.1 810.8 279.2C827.9 239.9 842.9 199.7 864 162.3C866.7 157.5 869.5 152.8 872.5 148.1C898.1 107.4 935 70.6 979.2 54.5C999.4 47.2 1020.1 44.2 1041.5 45.1C1081.3 46.6 1119.8 61.8 1158.4 76.5C1180.2 84.8 1201.8 92.7 1222.6 99.5C1240.9 105.6 1259.1 111 1277.1 115.3C1315.8 124.5 1353.9 128.7 1394.1 122.1" stroke="#5E5FFF" stroke-miterlimit="10"/>
<path d="M20.6001 594.9C50.8001 531.6 113.8 489.1 175 476.3C212 468.6 248.4 470.7 290.7 474.9C296 475.4 301.3 476 306.7 476.5C351.1 481.1 397.3 485.7 440.7 487.2C490.4 489.1 539.4 486.4 589.6 474.3C647.7 460.4 694.5 446.1 735.7 409.9C747.5 399.5 758.4 387.4 768.1 374.1C786.4 349.1 801.3 320.1 814.1 290.8C831.5 250.9 846.2 210 867.2 171.9C869.9 167 872.7 162.2 875.6 157.4C901.2 115.9 938.8 78.3002 984 63.1002C1004.6 56.2002 1025.6 54.0002 1047.2 55.6002C1087.3 58.5002 1125.8 75.0002 1165 89.5002C1187.2 97.7002 1209.2 105.1 1230.4 111C1249 116.3 1267.6 120.7 1285.7 123.9C1324.8 130.8 1362.7 132.2 1402.6 123.5" stroke="##625FFF" stroke-miterlimit="10"/>
<path d="M19.3999 591.2C50.2999 528.5 115.1 488.2 175.3 479.4C211.8 474.1 246.8 478.8 288.6 484C293.8 484.7 299.1 485.3 304.5 485.9C348.6 491 394.8 494.2 437.8 494.2C487 494.4 535.5 489.6 585.5 478.2C644.5 464.8 692.3 455.6 735.6 421.4C748 411.6 759.4 399.7 769.6 386.6C788.7 361.9 804.3 332.5 817.3 302.8C835 262.4 849.4 220.7 870.4 181.9C873.1 176.9 875.9 172 878.8 167.2C904.4 124.9 942.7 86.5 988.8 72.2C1009.9 65.7 1031.1 64.3 1052.8 66.6C1093.1 70.9 1131.8 88.6 1171.6 103C1194.2 111.2 1216.7 117.9 1238.3 123C1257.3 127.5 1276.1 131 1294.5 133.1C1334 137.6 1371.6 136.3 1411.2 125.5" stroke="#665FFF" stroke-miterlimit="10"/>
<path d="M18.1001 587.5C49.7001 525.3 116.2 487.4 175.6 482.4C211.5 479.4 245.1 486.8 286.5 493.1C291.7 493.9 297 494.6 302.3 495.3C346.1 501 392.4 502.7 435 501.2C483.6 499.5 531.6 492.9 581.6 482.1C641.5 469.2 690.4 465.1 735.6 432.8C748.6 423.5 760.6 412 771.2 399C791.2 374.5 807.4 344.8 820.6 314.8C838.6 273.8 852.7 231.4 873.6 191.9C876.3 186.8 879.1 181.8 882 176.9C907.6 133.8 946.6 94.6001 993.7 81.2001C1015.2 75.1001 1036.7 74.4001 1058.6 77.5001C1099.1 83.2001 1138 102.2 1178.4 116.5C1201.3 124.6 1224.3 130.8 1246.4 135C1265.8 138.8 1284.9 141.2 1303.4 142.2C1343.2 144.3 1380.7 140.2 1420 127.4" stroke="#6A5FFF" stroke-miterlimit="10"/>
<path d="M16.8999 583.8C49.1999 522.2 117.5 486.6 176 485.5C211.4 484.8 243.6 494.9 284.6 502.2C289.8 503.1 295 504 300.2 504.7C343.7 511 390 511.2 432.2 508.1C480.3 504.6 527.7 496.1 577.6 485.9C638.4 473.5 688.3 474.4 735.5 444.2C749.1 435.5 761.6 424.3 772.7 411.3C793.6 387.1 810.3 357.1 823.7 326.6C842 285.1 855.8 241.8 876.6 201.7C879.3 196.6 882.1 191.5 885 186.4C910.7 142.5 950.4 102.4 998.3 90C1020.3 84.3 1042 84.4 1064 88.2C1104.7 95.3 1143.7 115.5 1184.7 129.7C1208 137.7 1231.4 143.3 1254 146.7C1273.7 149.7 1293.2 151.1 1311.8 151C1352 150.8 1389.3 143.9 1428.2 128.9" stroke="#6E5FFF" stroke-miterlimit="10"/>
<path d="M15.6001 580C48.5001 519 118.6 485.7 176.3 488.4C211.2 490.1 241.9 502.8 282.5 511.1C287.6 512.2 292.8 513.1 298 513.9C341.2 520.7 387.5 519.5 429.3 514.9C476.9 509.7 523.7 499.1 573.5 489.6C635.2 477.8 686.2 483.7 735.3 455.4C749.5 447.2 762.5 436.3 774.2 423.5C795.9 399.6 813.3 369.2 826.9 338.4C845.5 296.3 859 252.3 879.8 211.5C882.5 206.3 885.2 201.1 888.2 195.9C913.9 151.2 954.3 110.3 1003.2 98.8C1025.6 93.5 1047.6 94.3 1069.8 98.9C1110.8 107.3 1149.9 128.9 1191.5 142.9C1215.2 150.9 1239.1 155.9 1262 158.4C1282.1 160.7 1301.8 161.1 1320.7 159.9C1361.2 157.3 1398.4 147.7 1436.9 130.6" stroke="#725FFF" stroke-miterlimit="10"/>
<path d="M14.3999 576.3C47.9999 515.8 119.8 484.9 176.7 491.4C211.1 495.4 240.3 510.8 280.5 520.2C285.6 521.4 290.7 522.4 295.9 523.3C338.8 530.7 385.2 528 426.5 521.9C473.5 514.9 519.9 502.4 569.6 493.5C632.2 482.2 684.3 493.2 735.3 466.8C750.1 459.2 763.7 448.6 775.8 435.9C798.4 412.2 816.4 381.6 830.2 350.3C849 307.7 862.4 262.9 883 221.4C885.6 216.1 888.4 210.8 891.4 205.6C917.1 160.1 958.2 118.4 1008 107.8C1030.9 102.9 1053.1 104.5 1075.5 109.8C1116.7 119.6 1156 142.4 1198.2 156.3C1222.3 164.2 1246.6 168.7 1270 170.3C1290.4 171.8 1310.5 171.2 1329.5 168.9C1370.4 164 1407.4 151.6 1445.6 132.4" stroke="#765FFF" stroke-miterlimit="10"/>
<path d="M13.1001 572.6C47.4001 512.7 121 484.1 177 494.5C210.9 500.8 238.7 518.9 278.5 529.3C283.5 530.6 288.6 531.8 293.8 532.7C336.4 540.7 382.8 536.6 423.8 528.8C470.3 520 516.1 505.7 565.7 497.3C629.2 486.6 682.3 502.6 735.4 478.2C750.8 471.1 764.9 460.8 777.5 448.2C800.9 424.8 819.6 393.8 833.6 362.2C852.7 319.1 865.8 273.5 886.4 231.2C889 225.8 891.8 220.4 894.8 215.1C920.5 168.8 962.3 126.3 1013.1 116.5C1036.4 112 1058.9 114.3 1081.4 120.4C1122.8 131.5 1162.2 155.7 1205 169.5C1229.5 177.3 1254.3 181.2 1278.1 182C1298.9 182.7 1319.3 181.2 1338.4 177.8C1379.7 170.5 1416.5 155.3 1454.3 134.1" stroke="#7A5FFF" stroke-miterlimit="10"/>
<path d="M11.8999 568.9C46.8999 509.6 122.2 483.3 177.3 497.5C210.6 506.2 237 526.9 276.4 538.3C281.4 539.8 286.4 541 291.6 542C333.9 550.5 380.4 545 420.9 535.7C466.8 525.2 512.1 508.9 561.7 501.1C626.2 491 680.3 512 735.3 489.5C751.2 483 765.9 473 779 460.5C803.3 437.4 822.6 406 836.8 374.1C856.2 330.4 869 284.1 889.5 241.1C892.1 235.6 894.9 230.1 897.9 224.7C923.6 177.6 966.1 134.3 1017.8 125.4C1041.6 121.3 1064.3 124.4 1087 131.2C1128.6 143.7 1168.2 169.2 1211.6 182.8C1236.4 190.6 1261.7 193.9 1286 193.8C1307.2 193.8 1327.8 191.2 1347.2 186.7C1388.8 177 1425.5 159.1 1463 135.7" stroke="#7E5FFF" stroke-miterlimit="10"/>
<path d="M10.6001 565.1C46.3001 506.3 123.4 482.3 177.6 500.5C210.4 511.5 235.4 534.9 274.3 547.4C279.2 549 284.3 550.3 289.3 551.4C331.3 560.5 377.8 553.5 417.9 542.7C463.3 530.4 508.1 512.2 557.5 505C622.9 495.5 678 521.4 735 501C751.5 495.1 766.8 485.3 780.3 473C805.4 450.1 825.4 418.5 839.8 386.1C859.5 341.9 872 294.8 892.5 251.1C895.1 245.5 897.9 239.9 900.8 234.4C926.5 186.5 969.7 142.4 1022.4 134.4C1046.6 130.7 1069.6 134.5 1092.4 142.1C1134.3 155.9 1173.9 182.7 1218 196.2C1243.2 203.9 1269 206.7 1293.6 205.7C1315.1 204.9 1336.1 201.3 1355.6 195.8C1397.6 183.8 1434 163.1 1471.2 137.6" stroke="#825FFF" stroke-miterlimit="10"/>
<path d="M9.30029 561.4C45.7003 503.2 124.5 481.5 177.9 503.5C210.2 516.9 233.7 542.9 272.3 556.4C277.2 558.1 282.2 559.6 287.2 560.7C328.9 570.4 375.5 561.9 415.1 549.6C460 535.6 504.2 515.4 553.6 508.8C619.9 499.9 676.1 530.8 735 512.3C752.1 506.9 767.9 497.5 782 485.2C808 462.6 828.6 430.6 843.2 397.9C863.2 353.1 875.4 305.3 895.8 260.9C898.4 255.2 901.2 249.5 904.1 244C929.8 195.3 973.7 150.4 1027.3 143.3C1052 140 1075.2 144.5 1098.2 152.9C1140.3 168 1180.1 196.2 1224.7 209.5C1250.3 217.1 1276.5 219.3 1301.6 217.5C1323.5 215.9 1344.8 211.4 1364.4 204.7C1406.7 190.3 1443 166.9 1479.8 139.3" stroke="#865FFF" stroke-miterlimit="10"/>
<path d="M8.1001 557.7C45.2001 500 125.8 480.7 178.3 506.6C210.1 522.3 232.1 551 270.3 565.5C275.1 567.4 280.1 568.9 285.1 570.1C326.5 580.3 373.1 570.5 412.4 556.5C456.7 540.7 500.4 518.7 549.7 512.6C616.9 504.3 674.2 540.3 735 523.6C752.7 518.8 769 509.6 783.6 497.5C810.5 475.1 831.7 442.9 846.5 409.7C866.8 364.4 878.7 315.8 899.1 270.7C901.7 264.9 904.5 259.2 907.4 253.5C933.1 203.9 977.7 158.3 1032.2 152.1C1057.3 149.3 1080.8 154.5 1103.9 163.6C1146.2 180.1 1186.2 209.5 1231.4 222.8C1257.4 230.4 1284 232 1309.6 229.3C1331.8 227 1353.4 221.4 1373.3 213.6C1416 196.9 1452.1 170.6 1488.6 141" stroke="#8A5FFF" stroke-miterlimit="10"/>
<path d="M6.80029 554C44.5003 496.9 126.9 479.9 178.6 509.6C209.9 527.6 230.5 559 268.2 574.6C273 576.6 277.9 578.2 282.9 579.5C324 590.3 370.7 579.1 409.5 563.5C453.3 546.1 496.5 522 545.6 516.5C613.7 508.8 672 549.8 734.9 535.1C753.2 530.9 770 522 785.1 510C812.8 487.8 834.7 455.3 849.7 421.8C870.2 375.9 881.9 326.6 902.2 280.8C904.8 274.9 907.6 269.1 910.5 263.3C936.2 212.9 981.5 166.5 1037 161.2C1062.5 158.8 1086.3 164.7 1109.6 174.6C1152.2 192.4 1192.2 223.2 1238.1 236.3C1264.5 243.8 1291.6 244.9 1317.6 241.3C1340.2 238.2 1362.1 231.7 1382.1 222.8C1425.2 203.7 1461.1 174.7 1497.2 143" stroke="#8E5FFF" stroke-miterlimit="10"/>
<path d="M5.6001 550.2C44.0001 493.7 128.2 479 178.9 512.6C209.7 533 228.8 567 266.2 583.6C271 585.7 275.8 587.5 280.8 588.8C321.6 600.2 368.3 587.5 406.7 570.4C450 551.2 492.6 525.3 541.7 520.3C610.8 513.3 670.1 559.2 734.9 546.4C753.8 542.7 771.2 534.1 786.7 522.3C815.2 500.4 837.8 467.5 853 433.6C873.8 387.2 885.2 337.1 905.5 290.5C908.1 284.5 910.9 278.6 913.8 272.7C939.5 221.5 985.5 174.3 1041.9 169.9C1067.9 167.9 1091.9 174.6 1115.4 185.2C1158.2 204.4 1198.4 236.5 1244.8 249.4C1271.6 256.8 1299.1 257.3 1325.5 252.8C1348.5 248.9 1370.7 241.4 1390.8 231.4C1434.2 209.9 1470 178.2 1505.8 144.3" stroke="#925FFF" stroke-miterlimit="10"/>
<path d="M4.30029 546.5C43.4003 490.5 129.3 478.2 179.2 515.6C209.4 538.3 227.2 575 264.1 592.6C268.8 594.9 273.6 596.7 278.5 598.1C319 610 365.8 595.9 403.7 577.2C446.5 556.3 488.5 528.4 537.5 524C607.5 517.6 667.8 568.5 734.6 557.6C754.1 554.5 772 546.2 788 534.4C817.4 512.8 840.6 479.6 856 445.3C877.1 398.3 888.3 347.4 908.4 300.2C911 294.1 913.7 288.1 916.7 282.2C942.4 230.2 989.1 182.2 1046.5 178.6C1072.9 177 1097.2 184.4 1120.8 195.8C1163.8 216.3 1204.2 249.7 1251.2 262.5C1278.3 269.9 1306.4 269.8 1333.2 264.4C1356.5 259.8 1379 251.2 1399.4 240.2C1443.2 216.4 1478.8 181.9 1514.2 145.9" stroke="#965FFF" stroke-miterlimit="10"/>
<path d="M3.1001 542.8C42.9001 487.4 130.6 477.3 179.6 518.7C209.3 543.8 225.6 583.1 262.1 601.8C266.8 604.2 271.5 606.1 276.4 607.6C316.6 620.1 363.4 604.6 400.9 584.3C443.1 561.6 484.7 531.9 533.6 527.9C604.5 522.2 665.9 578 734.6 569.1C754.7 566.5 773.1 558.5 789.6 546.9C819.8 525.5 843.7 492 859.3 457.3C880.7 409.8 891.6 358.1 911.7 310.2C914.3 304 917 297.9 920 291.9C945.7 239.1 993.1 190.3 1051.4 187.6C1078.3 186.4 1102.8 194.6 1126.6 206.7C1169.9 228.6 1210.3 263.3 1258 275.9C1285.5 283.2 1314 282.6 1341.3 276.3C1365 270.9 1387.8 261.4 1408.3 249.2C1452.4 223 1487.8 185.7 1522.9 147.7" stroke="#9A5FFF" stroke-miterlimit="10"/>
<path d="M1.80029 539.1C42.3003 484.3 131.7 476.5 179.9 521.7C209.1 549.1 223.9 591.1 260.1 610.8C264.7 613.3 269.5 615.3 274.3 616.9C314.2 630 361 613 398.2 591.2C439.9 566.7 480.9 535.3 529.7 531.7C601.5 526.8 663.9 587.3 734.6 580.4C755.3 578.4 774.3 570.7 791.3 559.2C822.4 538.1 846.9 504.3 862.7 469.2C884.4 421.2 895 368.7 915 320.1C917.6 313.8 920.3 307.6 923.3 301.5C949 247.9 997.1 198.3 1056.4 196.5C1083.7 195.7 1108.5 204.6 1132.4 217.5C1175.9 240.8 1216.5 276.7 1264.7 289.3C1292.6 296.5 1321.6 295.3 1349.3 288.2C1373.3 282.1 1396.5 271.5 1417.1 258.3C1461.6 229.8 1496.8 189.7 1531.6 149.6" stroke="#9E5FFF" stroke-miterlimit="10"/>
<path d="M0.600098 535.4C41.8001 481.1 133 475.7 180.3 524.8C209 554.5 222.4 599.2 258.1 620C300.3 644.5 354.2 624.5 395.4 598.3C436.6 572.1 477 538.7 525.7 535.7C598.4 531.3 661.9 596.9 734.6 592C794.7 587.9 841.2 536.1 866 481.3C890.8 426.5 900.8 365.7 926.5 311.3C952.3 256.9 1001.1 206.5 1061.2 205.6C1139.4 204.4 1195.6 283.5 1271.4 302.7C1324.2 316.1 1381 298.2 1425.9 267.3C1470.8 236.4 1505.8 193.6 1540.2 151.3" stroke="#955FFF" stroke-miterlimit="10"/>
<path d="M1 530.3C43.1 476.4 134 470.8 182.4 518.7C202.3 538.4 215.5 564.9 232.8 586.7C241.1 597.1 250.3 606.4 261.7 613.2C271 618.8 280.9 622.2 291.1 624C327 630.1 367.1 614.3 399.6 594.4C404.1 591.7 408.6 588.8 413 586C450.2 562.1 487.4 535.3 531 532C586.5 528 637.1 563.9 690.1 579.7C705.9 584.4 722 587.3 738.5 586.6C797.6 584.3 843.3 537.4 868.9 486.3C874.8 474.5 880.1 462.4 885 450C901.2 408.6 913.1 364.3 933.3 323C940.9 307.5 950.3 292.3 961.1 278.3C987.8 244.1 1023.6 218 1065 215.7C1086.7 214.5 1106.7 219.7 1126 228C1173.8 248.6 1217.2 288.7 1270.4 300.2C1322.4 311.5 1378.5 293.3 1423.3 263.1C1468.1 232.9 1503.8 191.7 1538.8 151.6" stroke="#8C5FFF" stroke-miterlimit="10"/>
<path d="M1.30029 525.3C44.4003 471.8 134.9 466.1 184.5 512.8C204.9 532 218.8 558 236.4 579.8C244.8 590.2 254 599.6 265.4 606.6C274.6 612.3 284.5 616 294.7 618C330.6 625 371 610.1 404 590.7C408.5 588 413.1 585.3 417.6 582.5C455.3 559.1 492.8 532.3 536.5 528.5C591.5 523.7 642.2 557.7 694.8 573.7C710.5 578.5 726.3 581.6 742.5 581.5C800.6 581.1 845.3 539 872 491.7C878.1 480.8 883.7 469.5 889 457.8C906.4 418.9 919.6 375.8 940.3 335.1C948.1 319.8 957.5 304.7 968.2 290.9C994.5 256.8 1029.1 230.3 1069.1 226.4C1090.1 224.4 1109.4 228.4 1128.1 235.5C1174.5 252.9 1217.3 289 1269.7 298.3C1320.9 307.5 1376.2 288.9 1421 259.4C1465.8 229.9 1502.1 190.4 1537.7 152.4" stroke="#835FFF" stroke-miterlimit="10"/>
<path d="M1.7002 520.2C45.7002 467.1 135.9 461.2 186.6 506.8C207.5 525.6 222.1 551.1 240 572.9C248.5 583.3 257.7 592.8 269.1 600C278.3 605.9 288 609.8 298.2 612C334.1 619.9 374.8 605.9 408.3 587C412.9 584.4 417.5 581.7 422.1 579C460.3 556.1 498 529.3 541.9 524.9C596.5 519.5 647.3 551.3 699.4 567.5C715 572.4 730.6 575.8 746.5 576.2C803.6 577.6 847.5 540.4 875 496.9C881.4 486.9 887.2 476.4 892.8 465.4C911.4 428.9 925.9 387 947.1 346.9C955 331.8 964.4 316.9 975 303.1C1000.9 269.2 1034.3 242.2 1072.8 236.7C1093 233.9 1111.7 236.8 1129.9 242.5C1175 256.7 1217.2 288.7 1268.7 295.9C1319 302.9 1373.7 284.1 1418.5 255.3C1463.3 226.5 1500.1 188.7 1536.4 152.8" stroke="#7A5FFF" stroke-miterlimit="10"/>
<path d="M2.1001 515.2C47.0001 462.5 136.9 456.4 188.8 500.9C210.2 519.2 225.5 544.2 243.7 566.1C252.3 576.5 261.6 586.1 272.8 593.5C281.9 599.5 291.6 603.7 301.8 606.1C337.7 614.9 378.7 601.7 412.7 583.4C417.4 580.9 422 578.2 426.7 575.5C465.3 553.1 503.4 526.3 547.4 521.4C601.5 515.3 652.4 545 704.1 561.5C719.5 566.4 734.9 570.1 750.5 571C806.6 574.3 849.6 541.8 878.1 502.2C884.7 493 890.9 483.4 896.8 473.1C916.7 439 932.5 398.4 954.1 358.9C962.2 344.1 971.6 329.2 982 315.5C1007.5 281.7 1039.8 254.3 1076.8 247.1C1096.2 243.4 1114.3 245.2 1131.9 249.7C1175.6 260.7 1217.2 288.7 1267.9 293.7C1317.4 298.6 1371.3 279.5 1416.1 251.4C1460.9 223.3 1498.3 187.1 1535.2 153.4" stroke="#715FFF" stroke-miterlimit="10"/>
<path d="M2.5 510.2C48.4 457.9 137.9 451.7 191 495C212.9 512.8 229 537.4 247.4 559.3C256.1 569.7 265.4 579.4 276.6 587C285.7 593.2 295.3 597.6 305.4 600.3C341.3 610 382.6 597.7 417.1 579.9C421.8 577.4 426.6 574.9 431.3 572.2C470.4 550.3 508.8 523.6 552.9 518C606.5 511.2 657.5 538.8 708.8 555.6C724.1 560.6 739.2 564.6 754.6 566C809.7 571.1 851.9 543.5 881.2 507.6C888 499.3 894.5 490.5 900.8 481C921.9 449.4 939 409.9 961.1 371C969.4 356.4 978.8 341.7 989 328C1014.1 294.3 1045.2 266.4 1080.8 257.7C1099.5 253.2 1116.8 253.9 1133.9 257C1176.3 264.8 1217.2 288.8 1267.1 291.6C1315.8 294.4 1369 274.9 1413.7 247.5C1458.5 220.1 1496.5 185.6 1534 153.9" stroke="#685FFF" stroke-miterlimit="10"/>
<path d="M2.8999 505.1C49.6999 453.3 138.9 446.8 193.1 489C215.5 506.4 232.3 530.4 251 552.3C259.8 562.7 269.1 572.5 280.3 580.3C289.3 586.6 298.9 591.2 309 594.2C344.9 604.8 386.4 593.4 421.5 576.1C426.3 573.7 431.1 571.2 435.9 568.6C475.5 547.2 514.1 520.6 558.4 514.4C611.5 507 662.7 532.4 713.5 549.5C728.6 554.6 743.6 558.8 758.7 560.7C812.8 567.6 854.1 544.9 884.3 512.8C891.3 505.4 898.1 497.4 904.8 488.6C927.1 459.4 945.6 421.2 968.1 382.8C976.5 368.4 985.9 353.9 996 340.2C1020.8 306.7 1050.6 278.2 1084.8 268C1102.7 262.6 1119.4 262.2 1135.9 264.1C1177 268.7 1217.2 288.7 1266.3 289.3C1314.2 290 1366.6 270.2 1411.3 243.5C1456.1 216.8 1494.6 183.9 1532.8 154.4" stroke="#5F5FFF" stroke-miterlimit="10"/>
<path d="M3.30029 500.1C51.0003 448.7 139.9 442 195.3 483.1C218.2 500 235.7 523.5 254.7 545.5C263.6 555.9 272.9 565.8 284 573.8C293 580.3 302.5 585.1 312.5 588.3C348.3 599.8 390.2 589.3 425.8 572.5C430.7 570.2 435.5 567.8 440.4 565.2C480.5 544.3 519.4 517.7 563.8 510.9C616.4 502.8 667.7 526.2 718 543.5C733 548.7 747.7 553.2 762.5 555.6C815.6 564.4 856.1 546.4 887.2 518.2C894.4 511.6 901.5 504.5 908.6 496.4C932.1 469.7 951.9 432.7 974.8 394.9C983.4 380.7 992.8 366.3 1002.7 352.7C1027.1 319.3 1055.7 290.4 1088.4 278.5C1105.6 272.3 1121.6 270.7 1137.5 271.3C1177.2 272.7 1216.8 288.7 1265.1 287.1C1312.2 285.7 1363.9 265.6 1408.5 239.6C1453.2 213.6 1492.4 182.4 1531.2 155" stroke="#5F65FF" stroke-miterlimit="10"/>
<path d="M3.7002 495C52.4002 444 140.9 437.1 197.4 477.1C220.8 493.6 239.1 516.6 258.3 538.6C267.3 548.9 276.7 559 287.7 567.1C296.6 573.7 306 578.8 316.1 582.3C351.9 594.7 394.1 585 430.2 568.8C435.1 566.6 440.1 564.2 444.9 561.7C485.5 541.3 524.7 514.8 569.2 507.3C621.4 498.6 672.7 519.8 722.6 537.4C737.4 542.6 752 547.4 766.5 550.4C818.6 561 858.3 547.9 890.2 523.5C897.6 517.8 905 511.5 912.5 504.2C937.2 479.9 958.3 444.1 981.7 406.9C990.4 393 999.9 378.7 1009.6 365.1C1033.6 331.8 1061 302.5 1092.3 289C1108.7 281.9 1124.1 279.3 1139.5 278.6C1177.9 276.8 1216.8 288.8 1264.3 285C1310.5 281.4 1361.5 261 1406.2 235.7C1450.9 210.4 1490.7 180.9 1530 155.6" stroke="#5F6CFF" stroke-miterlimit="10"/>
<path d="M4.1001 490C53.7001 439.4 141.9 432.4 199.6 471.2C223.5 487.2 242.5 509.7 262 531.8C271.1 542.1 280.5 552.3 291.4 560.6C300.3 567.4 309.6 572.7 319.7 576.4C355.5 589.7 398 580.9 434.5 565.2C439.5 563 444.5 560.7 449.4 558.3C490.5 538.4 529.9 512 574.6 503.9C626.3 494.5 677.8 513.6 727.2 531.5C741.9 536.8 756.2 541.9 770.4 545.3C821.5 557.7 860.4 549.5 893.2 528.8C900.9 524 908.6 518.5 916.4 511.9C942.3 490 964.8 455.5 988.6 418.8C997.5 405.1 1006.9 391 1016.6 377.4C1040.2 344.2 1066.4 314.5 1096.3 299.3C1111.9 291.4 1126.7 287.6 1141.5 285.6C1178.6 280.6 1216.9 288.5 1263.5 282.6C1308.9 276.9 1359.1 256.2 1403.8 231.6C1448.5 207 1488.8 179.1 1528.8 155.9" stroke="#5F73FF" stroke-miterlimit="10"/>
<path d="M4.5 485C55.1 434.8 143 427.6 201.7 465.2C226.1 480.8 245.8 502.8 265.6 524.8C274.9 535.1 284.2 545.4 295.1 553.9C303.9 560.8 313.2 566.3 323.2 570.3C359 584.5 401.8 576.6 438.8 561.4C443.9 559.3 448.9 557.1 453.9 554.7C495.5 535.3 535.2 509 580 500.2C631.2 490.2 682.8 507.1 731.8 525.3C746.4 530.7 760.4 536 774.4 540C824.5 554.3 862.6 550.8 896.2 534C904.1 530.1 912.1 525.4 920.3 519.5C947.4 500.1 971.2 466.7 995.5 430.7C1004.6 417.2 1014 403.2 1023.5 389.8C1046.7 356.8 1071.7 326.6 1100.2 309.8C1115.1 301.1 1129.2 296.1 1143.4 292.9C1179.2 284.6 1216.8 288.6 1262.6 280.5C1307.2 272.7 1356.7 251.7 1401.3 227.7C1446 203.8 1486.9 177.6 1527.5 156.5" stroke="#5F7AFF" stroke-miterlimit="10"/>
<path d="M4.8999 479.9C56.3999 430.1 144 422.7 203.9 459.2C228.8 474.3 249.2 495.8 269.3 517.9C278.7 528.2 288 538.6 298.9 547.3C307.6 554.4 316.9 560.1 326.9 564.3C362.7 579.4 405.8 572.3 443.3 557.7C448.4 555.7 453.6 553.5 458.6 551.2C500.7 532.3 540.7 506.1 585.6 496.7C636.3 486.1 688.1 500.8 736.6 519.3C751 524.7 764.9 530.4 778.6 534.8C827.8 550.9 865 552.3 899.5 539.3C907.6 536.2 915.9 532.4 924.5 527.3C952.7 510.3 978 478.2 1002.7 442.7C1011.9 429.4 1021.4 415.6 1030.7 402.2C1053.5 369.3 1077.3 338.6 1104.4 320.3C1118.5 310.7 1132 304.7 1145.6 300.1C1180.1 288.6 1217 288.6 1262 278.3C1305.8 268.4 1354.5 247 1399.1 223.8C1443.8 200.6 1485.3 176 1526.5 157.1" stroke="#5F81FF" stroke-miterlimit="10"/>
<path d="M5.30029 474.9C57.7003 425.5 145 418 206.1 453.3C231.5 467.9 252.7 489 273 511.1C282.5 521.4 291.9 531.9 302.6 540.8C311.3 548 320.5 554 330.4 558.5C366.2 574.6 409.6 568.3 447.6 554.2C452.8 552.3 458 550.2 463.1 547.9C505.6 529.5 545.9 503.4 591 493.3C641.3 482.1 693.1 494.7 741.2 513.3C755.5 518.8 769.1 524.7 782.5 529.7C830.7 547.7 867.1 553.9 902.4 544.6C910.8 542.4 919.3 539.4 928.3 535C957.7 520.4 984.3 489.5 1009.5 454.7C1018.9 441.7 1028.3 428 1037.5 414.6C1059.9 381.8 1082.5 350.7 1108.1 330.7C1121.4 320.3 1134.3 313.1 1147.3 307.3C1180.5 292.5 1216.7 288.6 1260.9 276.1C1303.9 264.1 1351.9 242.4 1396.5 219.9C1441.1 197.4 1483.3 174.5 1525.1 157.7" stroke="#5F88FF" stroke-miterlimit="10"/>
<path d="M5.7002 469.8C59.1002 420.8 146 413.1 208.2 447.3C234.1 461.5 256 482 276.6 504.2C286.2 514.5 295.6 525.1 306.3 534.2C314.9 541.6 324 547.8 334 552.5C369.7 569.5 413.5 564.1 452 550.4C457.3 548.5 462.5 546.5 467.7 544.3C510.7 526.4 551.3 500.4 596.5 489.7C646.3 477.9 698.2 488.3 745.9 507.2C760 512.8 773.4 519 786.6 524.5C833.8 544.3 869.5 555.4 905.5 549.9C914.1 548.6 922.9 546.5 932.3 542.7C962.9 530.5 990.8 500.9 1016.5 466.6C1026.1 453.8 1035.5 440.2 1044.5 426.9C1066.5 394.3 1087.9 362.7 1112.1 341.1C1124.7 329.9 1136.9 321.5 1149.4 314.4C1181.3 296.3 1216.8 288.5 1260.2 273.8C1302.3 259.7 1349.6 237.6 1394.2 215.8C1438.8 194 1481.5 172.8 1524 158" stroke="#5F8FFF" stroke-miterlimit="10"/>
<path d="M6.1001 464.8C60.4001 416.2 147 408.3 210.4 441.4C236.8 455.1 259.4 475.2 280.3 497.3C290 507.6 299.4 518.3 310 527.6C318.6 535.1 327.6 541.6 337.6 546.5C373.3 564.4 417.4 559.9 456.4 546.7C461.7 544.9 467 542.9 472.3 540.8C515.8 523.3 556.7 497.5 602 486.1C651.3 473.7 703.4 481.9 750.6 501.1C764.6 506.8 777.8 513.2 790.6 519.2C836.8 540.8 871.7 556.9 908.6 555.1C917.4 554.7 926.5 553.4 936.2 550.4C968 540.6 997.3 512.2 1023.3 478.5C1033 465.9 1042.5 452.5 1051.3 439.2C1072.9 406.7 1093.1 374.7 1115.9 351.5C1127.7 339.5 1139.2 329.9 1151.2 321.6C1181.8 300.3 1216.6 288.5 1259.2 271.6C1300.5 255.3 1347.1 233 1391.6 211.9C1436.2 190.8 1479.5 171.2 1522.6 158.6" stroke="#5F96FF" stroke-miterlimit="10"/>
<path d="M6.5 459.8C61.8 411.6 148 403.5 212.5 435.5C239.4 448.8 262.8 468.3 283.9 490.5C293.7 500.8 303.2 511.6 313.7 521C322.2 528.7 331.2 535.4 341.1 540.5C376.8 559.3 421.1 555.6 460.7 543C466.1 541.3 471.5 539.4 476.8 537.3C520.8 520.3 562 494.6 607.4 482.6C656.3 469.6 708.4 475.6 755.2 495.1C769 500.8 782 507.6 794.6 514.1C839.8 537.6 873.9 558.5 911.6 560.5C920.7 561 930.1 560.5 940.1 558.2C973 550.8 1003.7 523.7 1030.2 490.6C1040.1 478.2 1049.6 465 1058.2 451.7C1079.5 419.3 1098.4 386.9 1119.8 362C1130.9 349.1 1141.7 338.4 1153.1 328.8C1182.3 304.2 1216.6 288.5 1258.3 269.4C1298.8 251 1344.6 228.4 1389.1 208C1433.7 187.6 1477.6 169.7 1521.3 159.2" stroke="#5F9DFF" stroke-miterlimit="10"/>
<path d="M6.8999 454.7C63.0999 406.9 149 398.7 214.7 429.5C242.1 442.3 266.2 461.3 287.6 483.6C297.5 493.9 307 504.8 317.5 514.4C326 522.2 334.9 529.1 344.8 534.6C380.5 554.3 425.1 551.5 465.2 539.4C470.7 537.7 476.1 535.9 481.5 533.9C526 517.4 567.4 491.9 613 479.1C661.4 465.5 713.7 469.4 760 489.1C773.7 494.9 786.5 501.9 798.8 508.9C843 534.2 876.3 560.1 914.9 565.7C924.2 567.1 933.9 567.4 944.3 565.8C978.4 560.8 1010.5 535 1037.4 502.4C1047.4 490.3 1056.9 477.1 1065.5 463.9C1086.4 431.7 1104.1 398.8 1124 372.3C1134.3 358.6 1144.5 346.7 1155.3 335.9C1183.2 308 1216.8 288.3 1257.7 267C1297.4 246.5 1342.5 223.5 1387 203.8C1431.6 184.1 1476 167.8 1520.4 159.5" stroke="#5FA4FF" stroke-miterlimit="10"/>
<path d="M7.30029 449.7C64.4003 402.3 150 393.9 216.9 423.6C244.8 436 269.6 454.5 291.3 476.8C301.3 487.1 310.8 498.1 321.2 507.9C329.6 515.9 338.4 523 348.3 528.7C384 549.3 428.9 547.4 469.5 535.8C475 534.2 480.5 532.4 485.9 530.5C530.9 514.5 572.6 489.1 618.3 475.6C666.2 461.5 718.6 463.1 764.5 483.1C778 489 790.6 496.2 802.6 503.8C845.8 530.9 878.3 561.8 917.7 571.1C927.2 573.4 937.2 574.5 948 573.7C983.3 571.1 1016.7 546.5 1044.1 514.5C1054.3 502.6 1063.8 489.6 1072.2 476.5C1092.7 444.4 1109.2 411.1 1127.7 383C1137.2 368.5 1146.8 355.4 1157 343.3C1183.5 312.1 1216.5 288.5 1256.6 265C1295.4 242.4 1339.8 219.1 1384.3 200.1C1428.8 181 1473.9 166.5 1518.8 160.3" stroke="#5FABFF" stroke-miterlimit="10"/>
<path d="M7.7002 444.7C65.8002 397.7 151 389.1 219 417.7C247.4 429.6 273 447.6 294.9 469.9C305 480.2 314.5 491.3 324.9 501.3C333.3 509.4 342 516.8 351.9 522.7C387.6 544.2 432.8 543.2 473.9 532.1C479.5 530.6 485.1 528.9 490.5 527C536 511.5 578 486.3 623.8 472.1C671.3 457.4 723.7 456.8 769.2 477.1C782.6 483.1 794.9 490.6 806.7 498.6C848.9 527.6 880.6 563.3 920.9 576.4C930.6 579.6 940.9 581.4 952.1 581.4C988.6 581.2 1023.3 557.9 1051.2 526.5C1061.6 514.8 1071.1 502 1079.3 488.9C1099.4 456.9 1114.8 423.2 1131.8 393.4C1140.6 378.1 1149.4 363.8 1159.2 350.5C1184.4 316 1216.7 288.5 1256 262.8C1294 238.1 1337.7 214.5 1382.1 196.1C1426.6 177.7 1472.3 164.9 1517.8 160.7" stroke="#5FB2FF" stroke-miterlimit="10"/>
<path d="M8.1001 439.6C67.1001 393 152 384.3 221.2 411.6C250.1 423 276.4 440.6 298.6 462.9C308.9 473.2 318.4 484.4 328.6 494.6C336.9 502.9 345.6 510.5 355.4 516.7C391 539.1 436.6 538.9 478.1 528.4C483.8 527 489.4 525.3 494.9 523.5C540.8 508.5 583.2 483.4 629.1 468.5C676.1 453.3 728.7 450.4 773.7 471C787 477 799.1 484.8 810.5 493.4C851.7 524.2 882.6 564.9 923.7 581.7C933.6 585.7 944.2 588.4 955.8 589.1C993.5 591.3 1029.6 569.2 1057.9 538.4C1068.4 526.9 1077.9 514.2 1086 501.2C1105.7 469.4 1119.9 435.2 1135.5 403.8C1143.6 387.6 1151.7 372.2 1160.9 357.6C1184.7 319.8 1216.4 288.4 1254.9 260.5C1292.1 233.6 1335 209.7 1379.4 192.1C1423.9 174.4 1470.2 163.2 1516.3 161.2" stroke="#5FB9FF" stroke-miterlimit="10"/>
<path d="M8.5 434.6C68.4 388.4 153 379.5 223.3 405.7C252.7 416.7 279.7 433.7 302.2 456.1C312.6 466.4 322.1 477.6 332.3 488.1C340.5 496.5 349.2 504.4 359 510.8C394.6 534.1 440.5 534.8 482.5 524.8C488.2 523.4 493.9 521.9 499.5 520.1C545.9 505.6 588.6 480.8 634.6 465.1C681.2 449.4 733.8 444.2 778.4 465.1C791.5 471.2 803.4 479.3 814.6 488.4C854.8 521.1 884.8 566.7 926.9 587.1C937.1 592.1 947.9 595.5 959.9 597C998.8 601.6 1036.2 580.8 1065 550.6C1075.7 539.4 1085.2 526.8 1093.1 513.8C1112.4 482.1 1125.4 447.5 1139.6 414.5C1146.9 397.5 1154.3 380.9 1163 365.1C1185.3 324 1216.5 288.7 1254.2 258.6C1290.6 229.6 1332.8 205.4 1377.1 188.5C1421.6 171.5 1468.4 162 1515.2 162.1" stroke="#5FC0FF" stroke-miterlimit="10"/>
<path d="M8.8999 429.5C95.2999 364.6 228.8 373.4 305.9 449.2C324.8 467.8 340.7 489.9 362.6 504.8C403.1 532.3 457.2 530.6 504.1 516.6C551 502.6 594 477.9 640.1 461.5C686.2 445.1 738.9 437.9 783.1 459C854.1 492.9 886.4 591.1 963.8 604.6C1018.7 614.2 1071.3 573.8 1100 526C1128.7 478.2 1141 422.4 1164.8 372C1226.3 241.9 1370.2 155.6 1513.9 162.3" stroke="#5FC7FF" stroke-miterlimit="10"/>
</svg>

