<svg width="1225" height="1220" viewBox="0 0 1225 1220" fill="none" xmlns="http://www.w3.org/2000/svg">
<g filter="url(#filter0_d_85_6991)">
<path d="M111.5 18.3001C161.6 -3.99987 221.7 -1.29988 269.6 25.4001C317.6 52.1001 352.4 102.3 361.3 157.5C372.6 227.7 344.4 304 373.2 368.8C397.6 423.7 455.3 453 507.7 480.4C560.2 507.9 616.2 543.6 631.1 602C641.2 641.4 630.6 686.3 650.3 721.6C670.4 757.5 715.9 770.7 756.1 766.7C796.3 762.8 833.9 745.4 872.9 734.4C990.9 700.9 1123.9 728.5 1219.8 806.6" stroke="#1A0B96" stroke-miterlimit="10"/>
<path d="M106.4 20.2998C137.9 6.59984 173.4 3.09983 206.8 9.39983C227.1 13.1998 246.7 20.5998 264.3 31.2998C276 38.4998 286.8 47.0998 296.5 56.7998C319.7 80.1998 336.3 110 345.9 142.6C348.2 150.4 350.1 158.3 351.5 166.3C356.4 193.5 356.4 221.2 356.2 248.2C355.9 283.3 355.1 317.4 365.4 349.2C367.7 356.2 370.5 363.2 374 370C386.6 394.6 406.3 413.8 429.1 430.5C454.5 449.1 483.8 464.7 510.5 480.2C514.1 482.3 517.7 484.4 521.3 486.6C547.4 502.5 572.4 520.6 591.7 542.8C607.1 560.4 618.8 580.8 623.8 604.8C626.5 617.6 627.1 631 627.2 644.4C627.6 672.2 626.2 700.7 639.5 724.8C656.9 756.2 694 769.9 729.7 770.4C734.7 770.5 739.6 770.3 744.5 769.9C784.4 766.5 821.8 750.4 860.4 740.6C870.1 738.1 879.9 736.1 889.7 734.4C944.2 725.3 1000.5 729.1 1053 744.3C1105.3 759.5 1153.5 786 1193.2 821" stroke="#2E1CA4" stroke-miterlimit="10"/>
<path d="M101.3 22.4002C133.2 8.90018 169 6.20018 202.3 13.5002C222.5 17.9002 241.8 26.0002 258.9 37.4002C270.3 45.0002 280.7 54.0002 289.8 64.1002C311.7 88.3002 326.5 118.6 335.9 151.4C338.2 159.3 340.1 167.3 341.7 175.3C347.2 202.6 348.7 229.8 350 255.9C351.7 289.7 353.1 321.8 365 351.8C367.6 358.4 370.7 365 374.5 371.4C388.1 394.6 408.5 412.8 431.7 429.2C457.6 447.4 487.1 463.7 512.9 480.2C516.4 482.4 519.8 484.7 523.2 487C548.1 504 570.7 522.8 587.9 545.4C601.7 563.3 611.9 583.8 615.9 607.7C618 620.5 618.1 633.9 617.8 647.3C617.2 675.1 614.9 703.7 628.2 728.2C645.3 759.4 682.3 772.8 717.7 773.6C722.6 773.7 727.5 773.6 732.4 773.2C772 770.3 809.2 755.5 847.4 746.9C857 744.7 866.7 743 876.4 741.7C930.2 734.3 985.4 739.8 1035.7 756.7C1085.8 773.5 1130.6 801.4 1166.3 835.7" stroke="#1F2DB9" stroke-miterlimit="10"/>
<path d="M96.2998 24.5001C128.6 11.3001 164.8 9.20011 198 17.5001C218.1 22.5001 237.1 31.3001 253.6 43.4001C264.6 51.4001 274.6 60.8001 283.2 71.3001C303.8 96.3001 316.7 127 326.1 160.2C328.3 168.2 330.4 176.2 332.1 184.2C338.1 211.5 341.2 238.4 344.1 263.5C347.9 296.1 351.5 326.1 364.9 354.2C367.9 360.4 371.3 366.6 375.4 372.6C390 394.4 411.1 411.6 434.8 427.6C461.2 445.5 490.9 462.3 515.8 479.9C519.2 482.3 522.5 484.7 525.7 487.1C549.4 505.1 569.6 524.8 584.8 547.7C596.9 565.9 605.8 586.5 608.6 610.4C610.1 623.2 609.7 636.5 608.9 649.9C607.3 677.6 604.1 706.5 617.4 731.2C634.3 762.2 671.1 775.4 706.2 776.4C711.1 776.5 715.9 776.5 720.7 776.2C760 773.8 797 760.2 834.8 752.9C844.3 751 853.9 749.6 863.5 748.6C916.6 742.9 970.7 750.2 1018.9 768.6C1066.9 787 1108.2 816.3 1139.8 849.9" stroke="#313AC8" stroke-miterlimit="10"/>
<path d="M91.2002 26.6C123.9 13.6 160.5 12.2 193.5 21.6C213.5 27.2 232.2 36.8 248.2 49.4C258.9 57.8 268.4 67.7 276.4 78.4C295.7 104.2 306.8 135.4 316 168.9C318.2 177 320.3 185.1 322.3 193.1C328.9 220.5 333.5 247 338 271.1C343.9 302.4 349.7 330.4 364.7 356.7C368 362.5 371.8 368.2 376.1 373.9C391.8 394.3 413.5 410.5 437.6 426.2C464.5 443.7 494.3 461.2 518.4 479.8C521.6 482.3 524.8 484.8 527.9 487.5C550.4 506.6 568.2 527 581.4 550.4C591.9 568.9 599.4 589.6 601.1 613.5C602 626.3 601.1 639.6 599.8 652.9C597.3 680.5 593 709.7 606.4 734.7C622.9 765.6 659.7 778.4 694.5 779.7C699.3 779.9 704.2 779.9 708.9 779.6C747.9 777.7 784.7 765.4 822.1 759.3C831.5 757.8 841 756.6 850.4 755.9C902.8 751.9 955.8 761 1001.8 781C1047.6 801 1085.5 831.7 1113 864.6" stroke="#2C41D5" stroke-miterlimit="10"/>
<path d="M86.1001 28.7C119.2 15.9 156.2 15.2 189.1 25.6C209 31.9 227.4 42.1 242.9 55.4C253.3 64.3 262.3 74.5 269.8 85.6C287.8 112.2 297 143.9 306.1 177.7C308.3 185.9 310.5 194 312.6 202C319.7 229.4 325.9 255.6 332 278.7C339.9 308.8 348 334.8 364.5 359.2C368.2 364.6 372.2 369.9 376.9 375.2C393.6 394.2 416 409.4 440.6 424.8C468.1 441.9 498 460.1 521.2 479.7C524.3 482.3 527.3 485 530.2 487.8C551.5 508 566.8 529.2 578 552.9C586.9 571.7 593 592.6 593.6 616.4C593.9 629.2 592.5 642.5 590.8 655.8C587.3 683.3 582.1 712.8 595.5 738C611.8 768.7 648.4 781.3 682.9 782.8C687.7 783 692.5 783 697.2 782.9C735.9 781.5 772.5 770.5 809.5 765.6C818.8 764.4 828.1 763.5 837.5 763.1C889.2 760.8 941 771.6 984.9 793.3C1028.6 814.9 1063.1 847 1086.4 879.2" stroke="#1857E2" stroke-miterlimit="10"/>
<path d="M81 30.8C114.5 18.2 151.9 18.3 184.6 29.7C204.4 36.6 222.5 47.5 237.5 61.5C247.5 70.8 256.1 81.4 263.1 92.8C279.7 120.3 287.1 152.3 296.1 186.5C298.3 194.8 300.5 202.9 302.8 211C310.5 238.5 318.1 264.2 325.9 286.4C335.9 315.2 346.2 339.2 364.3 361.8C368.3 366.8 372.7 371.7 377.6 376.6C395.3 394.2 418.4 408.4 443.4 423.5C471.4 440.3 501.5 459.1 523.8 479.7C526.8 482.5 529.7 485.3 532.4 488.2C552.5 509.4 565.4 531.4 574.6 555.5C581.8 574.6 586.6 595.6 586 619.4C585.7 632.2 583.8 645.5 581.6 658.7C577.1 686.1 571 715.9 584.4 741.4C600.4 772 636.9 784.2 671.1 786C675.9 786.3 680.6 786.3 685.3 786.2C723.6 785.3 760.1 775.5 796.7 771.9C805.9 771 815.1 770.5 824.4 770.4C875.4 769.8 926.1 782.4 967.8 805.7C1009.3 828.9 1040.4 862.4 1059.6 893.9" stroke="#0E4EEF" stroke-miterlimit="10"/>
<path d="M76 32.7998C109.8 20.3998 147.7 21.1998 180.2 33.5998C199.9 41.0998 217.7 52.6998 232.2 67.3998C241.9 77.0998 250 88.0998 256.4 99.8998C271.7 128.2 277.3 160.7 286.2 195.2C288.3 203.5 290.7 211.8 293.1 219.9C301.3 247.4 310.5 272.8 319.9 294C332 321.6 344.4 343.5 364.1 364.2C368.4 368.8 373.1 373.3 378.4 377.8C397.1 394 421 407.3 446.4 421.9C474.9 438.3 505.2 457.7 526.6 479.5C529.5 482.4 532.2 485.4 534.8 488.4C553.7 510.7 564.2 533.4 571.3 557.9C576.9 577.2 580.2 598.4 578.6 622.1C577.7 634.9 575.3 648.1 572.6 661.4C567.2 688.8 560.1 718.7 573.4 744.5C589.2 774.9 625.5 786.9 659.4 788.9C664.1 789.2 668.8 789.3 673.5 789.3C711.5 789 747.8 780.4 784 778C793.1 777.4 802.2 777.2 811.3 777.4C861.6 778.5 911.2 792.9 950.7 817.7C990.1 842.5 1017.7 877.4 1032.9 908.2" stroke="#2252F5" stroke-miterlimit="10"/>
<path d="M70.8999 34.9C105.1 22.7 143.3 24.2001 175.8 37.7001C195.4 45.8001 212.9 58.2 226.9 73.4C236.2 83.6 243.9 95 249.8 107.1C263.8 136.2 267.5 169.1 276.3 204C278.4 212.4 280.8 220.7 283.4 228.8C292.1 256.4 302.9 281.4 313.9 301.6C328.1 327.9 342.7 347.9 363.9 366.7C368.6 370.8 373.6 375 379.1 379.1C398.9 393.9 423.4 406.2 449.3 420.5C478.3 436.5 508.8 456.6 529.2 479.4C531.9 482.4 534.5 485.6 537 488.7C554.7 512.1 562.8 535.5 567.9 560.4C571.9 580 573.8 601.3 571.1 625C569.6 637.8 566.7 651 563.6 664.2C557.2 691.5 549.2 721.7 562.5 747.8C578 778 614.2 789.7 647.8 792C652.5 792.3 657.1 792.5 661.7 792.5C699.4 792.7 735.5 785.4 771.4 784.2C780.4 783.9 789.4 784 798.4 784.5C848 787.3 896.4 803.5 933.8 829.9C971 856.3 995.2 892.6 1006.3 922.7" stroke="#3753FF" stroke-miterlimit="10"/>
<path d="M65.7998 37C100.4 25 139 27.2 171.3 41.7C190.8 50.4 208 63.5 221.5 79.4C230.5 90 237.8 101.8 243.1 114.2C255.8 144.1 257.7 177.5 266.3 212.7C268.4 221.2 270.9 229.6 273.6 237.7C282.9 265.4 295.2 289.9 307.8 309.3C324 334.4 340.8 352.3 363.7 369.3C368.7 373 374.1 376.8 379.8 380.5C400.6 393.9 425.8 405.2 452.1 419.2C481.6 434.9 512.3 455.6 531.8 479.4C534.4 482.6 536.9 485.8 539.1 489.2C555.6 513.6 561.3 537.8 564.3 563.1C566.7 583 567.2 604.5 563.4 628.1C561.3 640.9 557.9 654.1 554.3 667.3C546.9 694.5 538 725 551.3 751.3C566.5 781.4 602.7 792.8 635.9 795.3C640.5 795.7 645.2 795.9 649.7 796C687.1 796.7 723 790.6 758.5 790.7C767.4 790.7 776.3 791.1 785.2 791.9C834.1 796.4 881.4 814.3 916.6 842.4C951.6 870.4 972.5 908.1 979.4 937.5" stroke="#274CDA" stroke-miterlimit="10"/>
<path d="M60.7998 39.0998C95.7998 27.2998 134.8 30.1998 167 45.7998C186.4 55.0998 203.3 68.8998 216.2 85.4998C224.8 96.4998 231.7 108.7 236.5 121.5C247.9 152.2 247.9 186.1 256.4 221.6C258.5 230.2 261 238.6 263.9 246.7C273.7 274.4 287.6 298.6 301.8 317C320.1 340.8 339.1 356.7 363.5 371.9C368.9 375.2 374.5 378.5 380.6 381.9C402.4 393.9 428.3 404.2 455.1 417.8C485.1 433.1 516 454.5 534.6 479.3C537.1 482.6 539.4 486 541.5 489.5C556.7 515 560.1 539.9 561.1 565.6C561.9 585.7 560.9 607.4 556 631C553.3 643.8 549.4 657 545.3 670.1C536.9 697.2 527.1 727.9 540.4 754.6C555.4 784.5 591.4 795.6 624.3 798.4C628.9 798.8 633.5 799.1 638 799.2C675.1 800.4 710.8 795.6 745.9 796.9C754.7 797.2 763.5 797.9 772.3 799.1C820.5 805.2 866.7 825 899.7 854.7C932.6 884.3 950 923.4 952.8 952.1" stroke="#3240FF" stroke-miterlimit="10"/>
<path d="M55.7002 41.2C91.1002 29.6 130.5 33.3 162.5 49.8C181.9 59.7 198.4 74.2999 210.8 91.3999C219.1 102.8 225.5 115.5 229.7 128.6C239.8 160.1 238 194.4 246.3 230.3C248.3 239 251 247.5 254 255.6C264.4 283.4 279.8 307.2 295.5 324.6C315.9 347.2 337 361.1 363.1 374.3C368.8 377.2 374.8 380.1 381.1 383.1C404 393.7 430.5 403 457.7 416.3C488.2 431.2 519.2 453.2 537 479.1C539.4 482.6 541.6 486.1 543.5 489.7C557.5 516.3 558.5 541.9 557.5 568C556.7 588.4 554.3 610.2 548.3 633.8C545 646.6 540.6 659.7 536 672.9C526.7 699.9 515.9 730.9 529.2 757.8C543.9 787.5 579.8 798.3 612.4 801.4C616.9 801.8 621.5 802.2 626 802.4C662.8 804.1 698.3 800.6 733 803.1C741.7 803.7 750.4 804.8 759 806.2C806.4 814 851.6 835.6 882.4 866.8C913.1 898 927.1 938.5 925.8 966.5" stroke="#4338FF" stroke-miterlimit="10"/>
<path d="M50.6001 43.2998C86.4001 31.8998 126.2 36.2998 158.1 53.8998C177.4 64.4998 193.6 79.6998 205.5 97.4998C213.4 109.4 219.4 122.4 223.1 135.8C231.9 168.2 228.2 202.9 236.5 239C238.5 247.8 241.2 256.3 244.4 264.5C255.3 292.3 272.3 315.8 289.6 332.2C312 353.5 335.4 365.4 363 376.8C369 379.3 375.4 381.8 382 384.4C405.9 393.6 433.1 401.9 460.8 414.9C491.8 429.5 523 452.1 539.9 479C542.2 482.6 544.2 486.3 545.9 490C558.7 517.6 557.3 544.1 554.2 570.5C551.8 591.2 548 613.1 540.9 636.6C537 649.4 532.1 662.5 527.1 675.6C516.8 702.6 505.1 733.8 518.4 761C532.9 790.6 568.6 801.1 600.9 804.4C605.4 804.9 609.9 805.2 614.4 805.5C650.9 807.7 686.2 805.5 720.5 809.2C729.1 810.1 737.7 811.5 746.2 813.2C792.9 822.7 836.9 846.1 865.6 878.9C894.2 911.7 904.7 953.6 899.3 980.9" stroke="#4054E7" stroke-miterlimit="10"/>
<path d="M45.5 45.3C81.7 34.2 121.9 39.2 153.6 57.8C172.8 69 188.7 84.8999 200.1 103.4C207.7 115.7 213.2 129.1 216.4 142.9C223.9 176.1 218.4 211.2 226.5 247.7C228.5 256.6 231.3 265.2 234.6 273.3C246.1 301.2 264.5 324.2 283.5 339.7C308 359.8 333.5 369.6 362.8 379.2C369.2 381.3 375.8 383.4 382.7 385.5C407.6 393.3 435.6 400.6 463.6 413.3C495.1 427.5 526.5 450.8 542.5 478.7C544.6 482.4 546.5 486.3 548.1 490.2C559.7 518.9 556 546.1 550.8 572.9C546.8 593.8 541.5 615.9 533.3 639.4C528.8 652.3 523.4 665.3 517.9 678.4C506.6 705.3 494 736.7 507.3 764.2C521.5 793.6 557.1 803.8 589.1 807.4C593.6 807.9 598 808.3 602.5 808.7C638.7 811.5 673.8 810.4 707.7 815.4C716.2 816.6 724.7 818.3 733.1 820.4C779.1 831.6 822 856.7 848.5 891.2C874.9 925.6 882 968.9 872.6 995.5" stroke="#394DF2" stroke-miterlimit="10"/>
<path d="M40.5 47.4002C77 36.5002 117.6 42.2002 149.3 61.9002C168.4 73.7002 184 90.3002 194.9 109.5C202.1 122.2 207.2 136 209.8 150.1C216 184.1 208.6 219.7 216.6 256.5C218.5 265.5 221.4 274.1 224.9 282.3C236.9 310.2 256.9 332.9 277.5 347.4C304.1 366.2 331.8 374.1 362.6 381.8C369.3 383.5 376.3 385.2 383.5 386.9C409.4 393.3 438.1 399.6 466.6 411.9C498.6 425.7 530.2 449.7 545.3 478.6C547.3 482.5 549.1 486.4 550.5 490.5C560.9 520.2 554.8 548.2 547.5 575.4C541.9 596.6 535.2 618.9 525.9 642.3C520.8 655.2 514.9 668.2 508.9 681.2C496.7 708 483.1 739.7 496.4 767.5C510.4 796.7 545.8 806.7 577.5 810.5C581.9 811 586.3 811.5 590.7 811.9C626.6 815.2 661.5 815.4 695 821.6C703.4 823.2 711.8 825.1 720 827.5C765.3 840.4 807.1 867.3 831.4 903.4C855.7 939.4 859.4 984.1 845.8 1010" stroke="#4247FF" stroke-miterlimit="10"/>
<path d="M35.3999 49.4999C72.2999 38.7999 113.3 45.2999 144.8 65.8999C163.8 78.2999 179.1 95.6999 189.5 115.4C196.4 128.6 201 142.8 203.1 157.2C208 192 198.8 228 206.6 265.2C208.5 274.3 211.4 282.9 215.1 291.1C227.7 319.1 249.2 341.4 271.4 354.9C300.1 372.5 329.9 378.3 362.3 384.1C369.4 385.4 376.6 386.7 384.1 388C411.1 393 440.4 398.3 469.3 410.3C501.9 423.8 533.6 448.4 547.8 478.3C549.7 482.3 551.3 486.4 552.6 490.6C561.8 521.4 553.3 550.1 544 577.7C536.8 599.2 528.6 621.6 518.3 645C512.7 658.1 506.3 671.1 499.8 684.1C486.6 710.8 472.1 742.8 485.4 770.8C499.2 799.9 534.4 809.5 565.8 813.6C570.2 814.2 574.6 814.7 578.9 815.2C614.4 819 649.1 820.5 682.3 827.9C690.6 829.8 698.9 832 707 834.7C751.6 849.3 792.2 878 814.4 915.6C836.5 953.2 836.8 999.3 819.1 1024.5" stroke="#466AE8" stroke-miterlimit="10"/>
<path d="M30.2998 51.6C67.5998 41.1 109 48.3 140.4 70C159.3 83 174.3 101.1 184.2 121.5C190.7 135.1 195 149.7 196.5 164.5C200.1 200.1 189 236.6 196.8 274.1C198.7 283.3 201.7 292 205.5 300.2C218.6 328.2 241.7 350.1 265.5 362.7C296.2 379 328.3 382.9 362.3 386.8C369.7 387.7 377.3 388.5 385.1 389.5C413.1 393.1 443.1 397.4 472.5 409.1C505.6 422.2 537.5 447.4 550.8 478.4C552.6 482.5 554 486.8 555.1 491.1C563.1 523 552.2 552.4 540.8 580.4C532 602.2 522.4 624.7 511 648.1C504.7 661 497.8 673.9 490.9 686.9C476.7 713.5 461.3 745.7 474.6 774.1C488.1 803 523.2 812.4 554.3 816.7C558.6 817.3 563 817.9 567.3 818.4C602.5 822.7 637 825.4 669.8 834.1C678 836.3 686.2 838.8 694.2 841.8C738.1 858.1 777.6 888.6 797.7 927.8C817.7 967 814.5 1014.4 792.7 1039" stroke="#3B5DFC" stroke-miterlimit="10"/>
<path d="M25.2998 53.7002C62.9998 43.4002 104.8 51.3001 136 74.0001C154.8 87.6001 169.5 106.4 178.8 127.5C185 141.5 188.8 156.5 189.8 171.6C192.1 208.1 179.2 245 186.8 282.8C188.7 292.1 191.7 300.8 195.7 309.1C209.4 337.2 234 358.7 259.4 370.3C292.2 385.4 326.4 387.3 362 389.3C369.7 389.8 377.7 390.2 385.7 390.8C414.7 393 445.4 396.3 475.3 407.6C508.9 420.3 541 446.2 553.3 478.3C555 482.6 556.3 487 557.2 491.5C564 524.4 550.7 554.7 537.3 583.1C526.9 605.2 515.8 627.8 503.3 651.1C496.4 664 489 676.9 481.6 689.8C466.4 716.4 450.1 748.8 463.3 777.4C476.6 806.1 511.5 815.2 542.3 819.9C546.6 820.5 550.9 821.2 555.2 821.8C590.1 826.6 624.4 830.6 656.9 840.5C665 843 673.1 845.9 681 849.2C724.2 867.2 762.6 899.4 780.5 940.3C798.3 981.1 791.7 1029.9 765.8 1053.8" stroke="#5152FF" stroke-miterlimit="10"/>
<path d="M20.2002 55.8002C58.3002 45.7002 100.5 54.3002 131.5 78.1002C150.2 92.3002 164.6 111.8 173.4 133.5C179.3 147.9 182.6 163.4 183 178.8C184 216.1 169.2 253.4 176.7 291.6C178.5 300.9 181.7 309.8 185.8 318C200 346.2 226.2 367.3 253.2 378C288.1 391.8 324.5 391.7 361.7 391.9C369.8 391.9 378 392 386.4 392.2C416.5 393 447.8 395.3 478.1 406.3C512.2 418.7 544.4 445.2 555.9 478.3C557.4 482.7 558.6 487.2 559.4 491.9C565 525.9 549.4 556.9 533.9 585.7C521.9 608.1 509.4 630.8 495.8 654.1C488.3 666.9 480.4 679.9 472.5 692.8C456.4 719.3 439.2 751.9 452.3 780.9C465.4 809.4 500.2 818.3 530.6 823.2C534.9 823.9 539.1 824.6 543.4 825.2C578 830.5 612.1 835.8 644.2 846.9C652.3 849.7 660.2 852.9 667.9 856.5C710.4 876.2 747.7 910.2 763.4 952.6C779.1 995 769.1 1045.2 739.1 1068.4" stroke="#4A65E9" stroke-miterlimit="10"/>
<path d="M15.1001 57.7999C53.6001 47.8999 96.2001 57.2999 127.1 81.9999C145.7 96.8999 159.8 117.1 168.1 139.4C173.6 154.3 176.5 170.1 176.4 185.9C176.1 224 159.5 261.8 166.8 300.3C168.6 309.7 171.8 318.6 176.2 326.9C191 355.1 218.7 375.9 247.2 385.6C284.1 398.2 322.8 396.1 361.5 394.3C369.9 393.9 378.5 393.6 387.1 393.4C418.2 392.8 450.3 394.1 481 404.8C515.6 416.8 548 444 558.6 478.1C560 482.6 561 487.3 561.6 492.1C566 527.2 548 558.9 530.4 588.1C516.8 610.7 502.8 633.6 488.2 656.9C480.1 669.7 471.7 682.6 463.4 695.5C446.3 721.9 428.2 754.8 441.3 784C454.2 812.4 488.8 820.9 518.9 826.1C523.1 826.8 527.3 827.5 531.5 828.3C565.8 834.2 599.7 840.6 631.4 853C639.4 856.1 647.2 859.6 654.8 863.5C696.6 884.9 732.7 920.7 746.3 964.7C759.8 1008.7 746.4 1060.3 712.3 1082.8" stroke="#5742FF" stroke-miterlimit="10"/>
<path d="M10 59.9001C48.9 50.2001 91.8 60.3001 122.6 86.1001C141.1 101.6 154.9 122.5 162.7 145.5C167.9 160.8 170.3 177 169.7 193.1C168.1 232 149.6 270.2 156.9 309.1C158.7 318.6 162 327.6 166.5 335.8C181.8 364.1 211 384.4 241.2 393.2C280.2 404.5 321 400.4 361.3 396.8C370.1 396 378.9 395.3 387.9 394.7C420 392.7 452.8 393 483.9 403.4C519 415 551.6 442.8 561.3 478C562.6 482.7 563.5 487.5 563.9 492.4C567.1 528.5 546.7 561.1 527.1 590.6C511.9 613.5 496.5 636.5 480.7 659.8C472 672.6 463.2 685.5 454.3 698.4C436.2 724.7 417.2 757.8 430.3 787.4C442.9 815.6 477.4 823.9 507.2 829.3C511.4 830.1 515.6 830.8 519.7 831.6C553.7 838 587.4 845.7 618.7 859.3C626.6 862.7 634.3 866.5 641.8 870.7C682.9 893.8 717.9 931.3 729.3 977C740.7 1022.7 723.8 1075.6 685.6 1097.4" stroke="#5553DD" stroke-miterlimit="10"/>
<path d="M5 62C44.2 52.5 87.6 63.3 118.3 90.1C149 116.9 166.1 159.1 163.1 200.2C160.2 239.9 139.8 278.6 147 317.8C154.8 360.3 194.1 390.7 235.2 400.8C276.3 410.9 319.3 404.8 361.2 399.3C403.1 393.8 446.5 389.2 486.9 401.9C527.3 414.6 564 449.5 566.3 492.6C568.3 529.8 545.5 563.1 523.8 593C497.7 629 471.5 665.1 445.4 701.1C426.3 727.4 406.4 760.7 419.5 790.5C431.8 818.5 466.2 826.5 495.7 832.2C542 841.1 588.6 853 628.9 877.7C669.3 902.5 703.2 941.8 712.4 989.1C721.6 1036.4 701.3 1090.7 659 1111.8" stroke="#4E5FFF" stroke-miterlimit="10"/>
<path d="M28 59.1C65.4 54 104.3 68.2 130.2 95.4C156.1 122.7 168.3 162.6 162.6 203.5C157.2 242.4 136.3 281.5 142.5 321.3C149.3 364.3 187.6 396.4 228.8 407.3C268.9 417.9 311.2 411.9 352.4 407.4C395.2 402.7 439.5 399.5 480.8 412.5C520.9 425.2 557.6 458.9 560.6 501.6C563.2 538.4 541.1 571.8 519.6 601.6C493.9 637.2 468 672.7 442.3 708.3C423.4 734.6 403.9 768 417 797.8C429.4 825.9 463.7 834.3 493.3 840.1C538.9 848.9 584.8 860.4 624.7 884.8C664.6 909.2 698 948.2 707 994.9C716 1041.6 696.2 1095.2 654.8 1116.6" stroke="#5F58EA" stroke-miterlimit="10"/>
<path d="M50.8999 56.0998C86.3999 55.3998 120.8 72.8998 141.9 100.6C163 128.3 170.3 166 161.9 206.6C154 244.7 132.6 284.1 137.9 324.6C143.8 368.1 181 401.9 222.4 413.6C261.6 424.7 303.1 418.9 343.6 415.3C387.3 411.4 432.4 409.6 474.7 422.9C514.5 435.4 551.3 468.2 554.9 510.4C558 546.8 536.6 580.3 515.4 610C490.2 645.2 464.4 680.1 439.2 715.3C420.4 741.7 401.4 775.2 414.4 805C426.8 833.3 461 842.1 490.7 848C535.6 856.8 580.9 867.9 620.2 891.9C659.7 916 692.4 954.6 701.3 1000.8C710.2 1047 690.8 1099.7 650.3 1121.4" stroke="#6863FF" stroke-miterlimit="10"/>
<path d="M73.8999 53.1001C107.5 56.7001 137.5 77.6001 153.8 105.7C170.2 133.8 172.6 169.2 161.4 209.7C151.1 247 128.9 286.8 133.4 327.9C138.2 372 174.4 407.4 216 420C254.2 431.6 295.1 426.1 334.8 423.4C379.4 420.4 425.3 419.9 468.6 433.4C508.1 445.8 545 477.5 549.2 519.2C552.9 555.2 532.1 588.8 511.2 618.4C486.5 653.3 460.9 687.5 436.1 722.3C417.4 748.7 398.9 782.3 411.9 812.1C424.3 840.5 458.5 849.7 488.3 855.8C532.5 864.6 577.2 875.3 615.9 898.8C654.9 922.5 687.1 960.8 695.8 1006.4C704.5 1052 685.6 1104 646 1125.9" stroke="#5670FF" stroke-miterlimit="10"/>
<path d="M96.8999 50.2002C128.6 58.2002 154.1 82.4002 165.7 111C177.3 139.5 174.9 172.6 160.9 212.9C148.3 249.3 125.4 289.5 129 331.4C132.8 376 168 413 209.8 426.5C247.1 438.5 287.2 433.4 326.3 431.5C371.8 429.3 418.5 430.2 462.8 444C502 456.3 538.9 487 543.8 528.2C548.1 563.8 528 597.5 507.4 627C483.2 661.5 457.7 695.1 433.4 729.5C414.8 756 396.8 789.6 409.8 819.4C422.3 847.9 456.3 857.6 486.2 863.7C529.7 872.6 573.8 882.8 611.9 905.9C650.4 929.3 682.1 967.3 690.6 1012.2C699.1 1057.1 680.7 1108.4 642 1130.6" stroke="#6A7AFC" stroke-miterlimit="10"/>
<path d="M119.9 47.2002C149.8 59.6002 170.7 87.0002 177.6 116.2C184.4 145 177.3 175.9 160.4 216.1C145.5 251.7 121.8 292.3 124.5 334.8C127.4 379.9 161.5 418.5 203.4 432.9C239.8 445.3 279.2 438.2 317.5 439.5C363.9 441.1 411.5 440.4 456.7 454.5C495.6 466.7 532.6 496.4 538.1 537C542.9 572.2 523.5 606 503.2 635.4C479.5 669.5 454.1 702.4 430.3 736.5C411.8 763 394.3 796.8 407.3 826.6C419.8 855.3 453.8 865.4 483.8 871.6C526.6 880.5 570.1 890.3 607.6 913C645.6 936 676.7 973.7 685.2 1018.1C693.6 1062.5 675.6 1112.9 637.8 1135.4" stroke="#7168FF" stroke-miterlimit="10"/>
<path d="M142.9 44.2998C170.9 61.0998 187.4 91.6998 189.4 121.4C191.4 150.5 179.6 179.2 159.9 219.2C142.8 253.9 118.2 294.9 120 338.1C121.9 383.7 155 423.9 197.1 439.2C232.5 452 271.3 445.1 308.8 447.5C356 450.5 404.5 450.6 450.7 465C489.3 477 526.4 505.7 532.5 545.9C537.9 580.8 519.1 614.6 499.1 644C475.9 677.7 450.6 710 427.4 743.7C409 770.3 392 804.1 404.9 833.9C417.4 862.7 451.3 873.2 481.5 879.6C523.6 888.5 566.5 897.8 603.5 920.2C641.1 942.9 671.6 980.2 679.9 1024C688.2 1067.8 670.6 1117.5 633.8 1140.2" stroke="#566EF0" stroke-miterlimit="10"/>
<path d="M165.8 41.2998C191.9 62.3998 204 96.2998 201.2 126.6C198.5 156 182 182.5 159.3 222.4C140 256.3 114.6 297.7 115.5 341.6C116.4 387.7 148.4 429.5 190.8 445.7C225.3 458.9 263.5 452.3 300.1 455.6C348.2 459.9 397.5 461 444.7 475.5C483 487.4 520.1 515.1 526.9 554.8C532.9 589.3 514.8 623.3 495 652.5C472.3 685.8 447.2 717.5 424.4 750.8C406.1 777.4 389.6 811.3 402.5 841.1C415 870 448.9 881 479.1 887.4C520.5 896.3 562.7 905.2 599.2 927.2C636.3 949.5 666.3 986.5 674.4 1029.8C682.5 1073.1 665.4 1121.9 629.5 1144.9" stroke="#7181FF" stroke-miterlimit="10"/>
<path d="M188.8 38.3999C213 63.8999 220.7 101 213.1 131.9C205.8 161.6 184.6 185.9 158.8 225.7C137.4 258.8 111.1 300.5 111 345.1C111 391.7 141.9 435.1 184.4 452.3C218 465.9 255.5 459.8 291.3 463.8C340.2 469.3 390.5 471.4 438.6 486.2C476.6 498 513.8 524.6 521.2 563.8C527.7 597.9 510.4 632 490.8 661.1C468.6 694.1 443.6 725.1 421.3 758C403.2 784.7 387.1 818.7 400 848.4C412.6 877.5 446.3 888.8 476.7 895.4C517.4 904.3 559 912.8 594.9 934.3C631.5 956.3 661 992.9 668.9 1035.6C676.8 1078.3 660.2 1126.4 625.2 1149.7" stroke="#8479FF" stroke-miterlimit="10"/>
<path d="M211.8 35.3999C234.1 65.2999 237.5 105.5 225 137.1C213.1 167.1 187.2 189.2 158.3 228.8C134.8 261 107.5 303.2 106.6 348.4C105.6 395.5 135.5 440.4 178.2 458.6C210.8 472.5 247.5 470 282.8 471.7C333 474.2 383.7 481.5 432.8 496.6C470.5 508.3 507.8 533.9 515.8 572.6C522.9 606.3 506.2 640.5 486.9 669.5C465.2 702.1 440.4 732.5 418.5 765C400.5 791.7 384.9 825.8 397.7 855.6C410.3 884.8 444 896.5 474.4 903.3C514.4 912.2 555.4 920.3 590.7 941.4C626.9 963 655.7 999.3 663.5 1041.5C671.3 1083.6 655.1 1130.9 621 1154.5" stroke="#6890FF" stroke-miterlimit="10"/>
<path d="M234.8 32.5C255.3 66.7 254.4 110.3 236.9 142.3C220.4 172.6 189.8 192.6 157.8 232C132.2 263.5 104 305.9 102.1 351.8C100.2 399.4 129 445.9 171.8 465C203.5 479.2 239.5 477.4 274 479.8C325.1 483.4 376.6 491.8 426.7 507.1C464.1 518.7 501.4 543.2 510.1 581.4C517.8 614.7 501.7 649 482.7 677.9C461.5 710.1 436.8 739.9 415.4 772C397.5 798.8 382.4 832.9 395.2 862.7C407.8 892 441.4 904.2 472 911C511.3 919.8 551.7 927.5 586.4 948.3C622.1 969.6 650.4 1005.5 658 1047.1C665.6 1088.7 649.9 1135.2 616.7 1159" stroke="#7E85EB" stroke-miterlimit="10"/>
<path d="M257.8 29.5C276.4 68.1 271.2 114.9 248.7 147.5C227.6 178.1 192.4 196 157.2 235.1C129.6 265.8 100.3 308.6 97.5001 355.2C94.6001 403.4 122.4 451.2 165.4 471.4C196.2 485.9 231.5 484.8 265.2 487.8C317.3 492.4 369.6 502 420.6 517.6C457.7 529 495.1 552.6 504.4 590.3C512.6 623.2 497.3 657.6 478.5 686.4C457.8 718.2 433.3 747.5 412.4 779.1C394.6 806 380 840.2 392.8 869.9C405.4 899.3 439 911.9 469.6 918.9C508.2 927.7 548 935 582.2 955.4C617.4 976.3 645.2 1011.9 652.6 1052.9C660 1093.9 644.8 1139.6 612.5 1163.7" stroke="#94A0FF" stroke-miterlimit="10"/>
<path d="M280.7 26.6001C297.4 69.6001 287.9 119.7 260.5 152.8C234.8 183.8 195 199.6 156.6 238.4C126.9 268.4 96.7002 311.4 93.0002 358.7C89.2002 407.4 115.9 456.7 159 478C188.9 492.8 223.4 492.4 256.4 496C309.4 501.8 362.5 512.4 414.5 528.3C451.3 539.6 488.8 562.1 498.7 599.3C507.5 631.8 492.8 666.3 474.3 695C454 726.4 429.8 755.1 409.3 786.3C391.7 813.2 377.5 847.5 390.3 877.2C403 906.8 436.5 919.7 467.2 926.9C505.1 935.7 544.3 942.6 577.9 962.5C612.7 983.1 639.9 1018.3 647.1 1058.8C654.4 1099.2 639.6 1144.1 608.2 1168.5" stroke="#8795E7" stroke-miterlimit="10"/>
<path d="M303.7 23.6001C318.5 70.9001 304.8 124.4 272.4 158C242.1 189.4 197.7 203.1 156.1 241.5C124.4 270.8 93.1998 314.1 88.4998 362C83.6998 411.2 109.4 462 152.7 484.3C181.8 499.3 215.5 499.8 247.8 504C301.7 510.9 355.6 522.6 408.6 538.7C445.1 549.9 482.6 571.4 493.2 608.1C502.6 640.2 488.5 674.9 470.3 703.4C450.5 734.4 426.4 762.5 406.4 793.3C388.9 820.3 375.2 854.6 387.9 884.4C400.6 914.1 434 927.5 464.9 934.7C502.1 943.5 540.6 950 573.7 969.5C608 989.8 634.6 1024.6 641.8 1064.5C648.9 1104.4 634.6 1148.5 604.1 1173.1" stroke="#7AA4FF" stroke-miterlimit="10"/>
<path d="M326.7 20.6001C339.7 72.3001 321.6 129.1 284.3 163.1C249.4 194.9 200.4 206.5 155.6 244.6C121.9 273.2 89.6001 316.7 84.1001 365.4C78.4001 415.1 103.1 467.3 146.4 490.7C174.6 506 207.6 507.3 239.1 512C294 520.2 348.6 532.8 402.6 549.2C438.9 560.3 476.4 580.7 487.6 617C497.5 648.7 484.2 683.5 466.2 711.9C446.9 742.5 423 770 403.4 800.4C386 827.5 372.8 861.9 385.5 891.6C398.2 921.4 431.6 935.2 462.5 942.6C499 951.3 536.9 957.4 569.4 976.6C603.2 996.5 629.3 1031.1 636.3 1070.4C643.3 1109.7 629.4 1153 599.8 1177.9" stroke="#91ADFF" stroke-miterlimit="10"/>
<path d="M349.7 17.7002C360.8 73.8002 338.4 133.9 296.2 168.4C256.7 200.6 203.1 210.2 155.1 247.8C119.4 275.8 86.1001 319.5 79.6001 368.8C73.0001 419 96.7001 472.5 140.1 497.1C167.4 512.6 199.6 514.8 230.4 520C286.2 529.4 341.7 543 396.6 559.7C432.6 570.6 470.2 590.1 482 625.8C492.5 657.1 479.8 692 462.1 720.4C443.3 750.6 419.5 777.5 400.4 807.5C383.1 834.6 370.4 869.1 383.1 898.8C395.8 928.8 429.1 942.9 460.2 950.5C496 959.2 533.3 964.9 565.2 983.7C598.6 1003.3 624.1 1037.5 630.9 1076.2C637.7 1114.9 624.3 1157.5 595.6 1182.7" stroke="#ACAAFF" stroke-miterlimit="10"/>
<path d="M372.7 14.7002C381.9 75.2002 355.2 138.6 308 173.6C263.9 206.3 205.7 213.8 154.5 251C116.8 278.4 82.5 322.3 75.1 372.2C67.5 422.9 90.3 477.8 133.7 503.6C160.2 519.3 191.6 522.5 221.6 528.1C278.3 538.8 334.6 553.4 390.6 570.2C426.3 581 463.9 599.5 476.4 634.7C487.5 665.6 475.4 700.6 458 728.9C439.7 758.7 416.1 785 397.5 814.6C380.4 841.8 368.1 876.3 380.7 906C393.5 936.1 426.7 950.6 457.8 958.4C492.9 967.1 529.6 972.4 560.9 990.7C593.8 1009.9 618.8 1043.8 625.4 1081.9C632 1120.1 619.1 1161.8 591.3 1187.3" stroke="##A2B5F8" stroke-miterlimit="10"/>
<path d="M395.7 11.7998C403 76.5998 372 143.5 319.9 178.8C271.2 211.9 208.5 217.4 154 254.1C114.3 280.9 78.9999 324.9 70.5999 375.5C62.0999 426.7 83.9 482.9 127.4 509.9C153 525.8 183.6 529.9 212.9 536.1C270.5 548.2 327.6 563.6 384.6 580.7C420 591.4 457.7 608.8 470.8 643.5C482.4 674 471 709.1 453.9 737.3C436 766.7 412.7 792.4 394.5 821.6C377.5 848.9 365.7 883.5 378.3 913.2C391.1 943.4 424.2 958.4 455.5 966.2C489.9 974.8 526 979.8 556.8 997.7C589.2 1016.6 613.6 1050.1 620.1 1087.7C626.6 1125.3 614.1 1166.3 587.2 1192" stroke="#BDB1FF" stroke-miterlimit="10"/>
<path d="M418.6 8.7998C424 77.9998 388.7 148.2 331.7 184C278.4 217.5 211.1 221.1 153.4 257.3C111.7 283.5 75.3999 327.7 65.9999 379C56.6999 430.8 77.3999 488.2 120.9 516.4C145.7 532.5 175.5 537.6 204.1 544.2C262.5 557.7 320.6 573.9 378.5 591.3C413.6 601.9 451.4 618.3 465.1 652.5C477.3 682.7 466.5 717.8 449.7 745.9C432.3 774.9 409.2 800.1 391.4 828.8C374.6 856.2 363.3 890.8 375.8 920.5C388.6 950.9 421.7 966.2 453 974.2C486.7 982.8 522.2 987.4 552.4 1004.9C584.4 1023.4 608.2 1056.6 614.5 1093.6C620.8 1130.6 608.8 1170.8 582.9 1196.8" stroke="##99C2FF" stroke-miterlimit="10"/>
<path d="M441.6 5.8999C445.2 79.4999 405.6 153.1 343.6 189.3C285.7 223.3 213.8 224.9 152.9 260.5C109.2 286.1 71.9 330.4 61.6 382.4C51.3 434.7 71.2 493.4 114.7 522.8C138.7 539 167.6 545.2 195.5 552.2C254.8 567.2 313.7 584.1 372.6 601.7C407.4 612.2 445.2 627.5 459.6 661.3C472.3 691.1 462.3 726.3 445.7 754.3C428.8 782.9 405.9 807.5 388.5 835.8C371.8 863.2 361 897.9 373.5 927.6C386.3 958.1 419.4 973.7 450.8 982C483.8 990.5 518.6 994.7 548.3 1011.9C579.8 1030.1 603.1 1062.9 609.2 1099.4C615.4 1135.9 603.8 1175.3 578.8 1201.5" stroke="#C6BAFF" stroke-miterlimit="10"/>
<path d="M464.6 2.8999C466.3 80.7999 422.3 157.8 355.4 194.5C292.9 228.9 216.4 228.6 152.3 263.7C106.5 288.8 68.2999 333.2 56.9999 385.8C45.7999 438.6 64.7999 498.5 108.2 529.2C131.4 545.6 159.4 552.8 186.6 560.3C246.7 576.9 306.5 594.4 366.4 612.3C400.9 622.6 438.8 637 453.8 670.2C467.1 699.6 457.7 734.9 441.5 762.8C425 791 402.3 815 385.4 842.9C368.9 870.4 358.5 905.2 370.9 934.8C383.8 965.4 416.7 981.5 448.3 989.8C480.6 998.3 514.8 1002.1 543.9 1018.8C574.9 1036.6 597.6 1069.1 603.6 1105C609.6 1140.9 598.5 1179.5 574.4 1206" stroke="#B8CAFF" stroke-miterlimit="10"/>
<path d="M487.6 0C487.4 82.3 439.1 162.6 367.3 199.7C300.1 234.5 219.1 232.3 151.8 266.8C104 291.4 64.6999 335.8 52.5999 389.2C40.3999 442.5 58.6 503.6 102 535.7C124.4 552.3 151.5 560.5 178 568.4C238.8 586.6 299.6 604.7 360.5 622.9C394.7 633.1 432.7 646.4 448.3 679.2C462.2 708.2 453.4 743.6 437.5 771.4C421.5 799.2 399 822.6 382.6 850.2C366.2 877.8 356.3 912.6 368.7 942.3C381.6 973 414.5 989.5 446.1 998C477.7 1006.5 511.3 1009.9 539.8 1026.2C570.4 1043.7 592.5 1075.8 598.4 1111.2C604.2 1146.5 593.6 1184.3 570.4 1211.1" stroke="#D5C4FF" stroke-miterlimit="10"/>
</g>
<defs>
<filter id="filter0_d_85_6991" x="0.882324" y="-0.000976562" width="1223.23" height="1219.43" filterUnits="userSpaceOnUse" color-interpolation-filters="sRGB">
<feFlood flood-opacity="0" result="BackgroundImageFix"/>
<feColorMatrix in="SourceAlpha" type="matrix" values="0 0 0 0 0 0 0 0 0 0 0 0 0 0 0 0 0 0 127 0" result="hardAlpha"/>
<feOffset dy="4"/>
<feGaussianBlur stdDeviation="2"/>
<feComposite in2="hardAlpha" operator="out"/>
<feColorMatrix type="matrix" values="0 0 0 0 0 0 0 0 0 0 0 0 0 0 0 0 0 0 0.25 0"/>
<feBlend mode="normal" in2="BackgroundImageFix" result="effect1_dropShadow_85_6991"/>
<feBlend mode="normal" in="SourceGraphic" in2="effect1_dropShadow_85_6991" result="shape"/>
</filter>
</defs>
</svg>
