<svg width="1387" height="1002" viewBox="0 0 1387 1002" fill="none" xmlns="http://www.w3.org/2000/svg">
<path d="M61 868.158C69.6 819.758 118.7 790.858 165.9 785.258C213.1 779.658 261.3 790.658 309.1 790.658C437.1 790.558 557.8 702.458 599.7 578.458C613.1 538.758 619 496.358 632.1 456.458C645.2 416.658 667.4 377.758 703.5 358.858C755.4 331.558 820.4 352.558 872.8 383.058C925.2 413.558 974.2 453.958 1032.2 467.958C1108.4 486.358 1187.7 454.658 1246 403.758C1304.3 352.858 1345.5 284.358 1385.7 216.958" stroke="#FF4DC4" stroke-miterlimit="10"/>
<path d="M58.1001 863.458C67.6001 815.258 116.5 786.458 163.8 780.658C184.3 778.158 204.9 778.758 225.6 780.458C252.8 782.658 280 786.558 307 787.158C362.1 788.358 415.9 774.258 463.1 746.858C499.6 725.658 532 697.758 557.9 664.258C576.4 640.458 591.2 613.658 601.5 584.558C606.1 571.558 609.9 558.158 613.4 544.658C620.5 517.258 626.3 489.458 635.5 462.958C645.9 432.858 661.7 403.758 685.1 383.958C692.4 377.758 700.3 372.458 709 368.258C745.4 350.758 787.5 356.758 827.8 371.658C845.2 378.058 862.3 386.158 878.2 394.758C896 404.458 913.4 414.858 930.7 424.858C964.7 444.458 998.4 462.558 1034.8 469.058C1058.5 473.358 1081.8 472.158 1105 467.058C1151.9 456.558 1198.1 428.558 1236.6 392.758C1247.1 382.958 1257.2 372.558 1267 361.858C1310.3 314.058 1346.5 258.858 1382.2 206.658" stroke="#F552C5" stroke-miterlimit="10"/>
<path d="M55.3 858.758C65.7 810.858 114.4 782.058 161.8 776.058C182.3 773.458 203 774.058 223.8 775.858C251 778.258 278.1 782.558 305.2 783.758C360.2 786.258 413.8 774.358 461.5 748.158C498.4 727.858 531.3 701.258 558.2 669.058C577.4 645.958 592.7 619.558 603.5 590.658C608.3 577.758 612.3 564.358 615.9 550.858C623.3 523.558 629.4 495.658 639 469.358C649.9 439.458 666.2 411.058 690.4 392.258C697.9 386.458 705.9 381.458 714.6 377.658C751.2 361.758 792.7 369.258 832.9 384.158C850.4 390.658 867.6 398.358 883.6 406.458C901.6 415.458 919.2 425.058 936.4 433.758C970.3 451.058 1003 466.358 1037.3 470.158C1059.5 472.658 1080.8 469.758 1102.1 463.158C1145.3 449.658 1189.2 419.058 1227 381.758C1237.4 371.458 1247.4 360.758 1257.2 349.758C1300.9 300.558 1339.8 245.758 1378.3 196.458" stroke="#EB57C7" stroke-miterlimit="10"/>
<path d="M52.3999 853.958C63.6999 806.358 112.1 777.458 159.6 771.358C180.1 768.758 200.9 769.258 221.7 771.158C248.9 773.658 276 778.358 303 780.158C357.9 783.858 411.4 774.358 459.6 749.258C496.8 729.858 530.4 704.658 558.2 673.658C578.2 651.358 594 625.358 605.2 596.658C610.2 583.858 614.3 570.558 618.2 557.058C625.9 529.758 632.4 501.858 642.3 475.758C653.6 446.058 670.5 418.358 695.4 400.458C703.1 394.958 711.1 390.358 719.9 386.958C756.6 372.658 797.6 381.658 837.8 396.558C855.3 403.058 872.6 410.558 888.9 418.058C907.1 426.458 924.8 434.958 942 442.658C975.8 457.658 1007.7 470.158 1039.8 471.158C1060.6 471.858 1079.7 467.258 1099.1 459.258C1138.6 442.958 1180.2 409.658 1217.3 370.658C1227.5 359.958 1237.5 348.758 1247.4 337.458C1291.5 286.758 1333.2 232.458 1374.4 186.058" stroke="#E15DC8" stroke-miterlimit="10"/>
<path d="M49.5 849.258C61.7 801.858 109.9 773.058 157.5 766.758C178.1 764.058 198.9 764.558 219.7 766.658C246.9 769.358 274 774.358 300.9 776.858C355.7 781.758 409.1 774.558 457.7 750.658C495.3 732.158 529.5 708.358 558.2 678.558C579 657.058 595.3 631.458 606.9 602.958C612.1 590.158 616.4 576.958 620.4 563.458C628.4 536.258 635.2 508.258 645.6 482.358C657.4 452.958 674.7 425.758 700.5 408.958C708.3 403.858 716.5 399.558 725.2 396.558C762.1 383.858 802.5 394.358 842.6 409.358C860.1 415.958 877.6 423.058 894 430.058C912.3 437.858 930.3 445.458 947.4 451.858C981.1 464.458 1012.2 474.258 1042.1 472.558C1061.5 471.458 1078.4 465.158 1096 455.658C1131.8 436.358 1171 400.558 1207.6 359.958C1217.6 348.758 1227.6 337.258 1237.6 325.658C1282.1 273.558 1326.5 219.758 1370.5 176.158" stroke="#D762CA" stroke-miterlimit="10"/>
<path d="M46.7 844.558C59.7 797.458 107.8 768.658 155.5 762.158C176.1 759.358 197 759.858 217.8 762.058C245 764.858 272.1 770.358 298.9 773.358C353.6 779.558 406.9 774.558 456 751.858C494 734.258 528.7 711.758 558.4 683.258C580 662.458 596.7 637.358 608.8 608.958C614.2 596.258 618.7 583.058 622.8 569.558C631.2 542.358 638.3 514.358 649 488.658C661.2 459.458 679.1 432.958 705.7 417.058C713.7 412.258 721.9 408.358 730.7 405.758C767.7 394.658 807.6 406.558 847.7 421.658C865.3 428.258 882.9 435.158 899.5 441.558C918 448.758 936.1 455.358 953.2 460.658C986.8 470.958 1017.1 477.958 1044.8 473.458C1062.9 470.558 1077.5 462.558 1093.3 451.558C1125.4 429.358 1162.3 390.858 1198.2 348.658C1208.1 336.958 1218 325.058 1228 313.158C1272.9 259.558 1320 206.258 1366.9 165.558" stroke="#CD67CB" stroke-miterlimit="10"/>
<path d="M43.8 839.758C57.7 792.958 105.6 764.058 153.4 757.558C174 754.758 195 755.158 215.8 757.458C243.1 760.458 270.1 766.258 296.9 769.858C351.5 777.258 404.7 774.658 454.2 753.058C492.6 736.358 527.9 715.258 558.5 687.958C580.9 667.958 598.1 643.258 610.6 615.058C616.1 602.458 620.8 589.358 625.2 575.858C633.9 548.658 641.3 520.658 652.4 495.158C665 466.158 683.4 440.258 710.9 425.458C719.1 421.058 727.4 417.458 736.2 415.258C773.4 405.758 812.7 419.158 852.8 434.258C870.4 440.858 888.2 447.458 904.9 453.358C923.6 459.958 941.8 465.558 959 469.658C992.4 477.658 1022.2 481.858 1047.5 474.658C1064.3 469.858 1076.7 460.158 1090.6 447.858C1119 422.758 1153.6 381.658 1188.9 337.858C1198.6 325.758 1208.5 313.458 1218.6 301.258C1263.9 246.258 1313.8 193.358 1363.4 155.458" stroke="#C36CCD" stroke-miterlimit="10"/>
<path d="M41 835.058C55.8 788.558 103.5 759.658 151.3 752.958C172 750.058 193 750.458 213.9 752.858C241.2 755.958 268.1 762.158 294.9 766.458C349.4 775.158 402.5 774.758 452.4 754.358C491.2 738.558 527.1 718.858 558.5 692.758C581.7 673.558 599.4 649.258 612.3 621.258C618 608.758 622.9 595.658 627.4 582.158C636.4 555.058 644.1 526.958 655.6 501.658C668.7 472.858 687.5 447.658 715.9 433.758C724.2 429.658 732.6 426.458 741.5 424.558C778.8 416.658 817.6 431.558 857.6 446.658C875.3 453.358 893.2 459.658 910 464.958C928.9 470.958 947.3 475.558 964.4 478.558C997.7 484.258 1026.8 485.458 1049.7 475.758C1065.3 469.158 1075.3 457.758 1087.4 443.958C1112.1 415.858 1144.3 372.258 1179 326.758C1188.6 314.158 1198.4 301.458 1208.6 288.958C1254.3 232.458 1306.9 180.158 1359.3 145.058" stroke="#B972CE" stroke-miterlimit="10"/>
<path d="M38.1001 830.358C53.8001 784.058 101.3 755.258 149.2 748.358C169.9 745.358 191 745.758 211.9 748.258C239.2 751.558 266.1 758.058 292.8 762.958C347.2 772.858 400.2 774.758 450.6 755.558C489.8 740.658 526.3 722.358 558.6 697.458C582.6 678.958 600.7 655.158 614.1 627.258C620 614.858 625 601.758 629.7 588.258C639 561.158 647.1 533.058 658.9 507.958C672.4 479.358 691.8 454.758 720.9 441.958C729.4 438.258 737.9 435.358 746.8 433.858C784.3 427.558 822.4 443.958 862.5 459.058C880.2 465.758 898.2 471.758 915.3 476.558C934.4 481.958 952.9 485.658 970 487.358C1003.2 490.758 1031.7 488.958 1052.2 476.658C1066.6 468.058 1074.2 455.058 1084.5 439.958C1105.5 408.858 1135.4 362.758 1169.5 315.658C1178.9 302.658 1188.7 289.558 1198.9 276.658C1245 218.758 1300.3 166.858 1355.5 134.658" stroke="#AF77CF" stroke-miterlimit="10"/>
<path d="M35.3 825.558C51.9 779.558 99.2001 750.658 147.2 743.658C167.9 740.658 189 740.958 210 743.558C237.3 746.958 264.2 753.958 290.8 759.458C345.1 770.658 397.9 774.858 448.8 756.758C488.4 742.758 525.5 725.858 558.7 702.158C583.5 684.458 602.1 661.058 615.9 633.358C622 621.058 627.2 608.058 632.1 594.558C641.8 567.558 650.1 539.358 662.4 514.458C676.4 486.058 696.2 462.058 726.2 450.358C734.8 446.958 743.4 444.558 752.4 443.358C790 438.658 827.6 456.558 867.7 471.658C885.5 478.358 903.6 484.158 920.8 488.358C940.1 493.058 958.7 495.858 975.8 496.458C1008.8 497.558 1036.8 492.558 1054.9 477.958C1068.1 467.358 1073.3 452.858 1081.8 436.258C1099.1 402.258 1126.7 353.458 1160.1 304.858C1169.3 291.358 1179.1 277.858 1189.4 264.758C1235.9 205.458 1293.9 153.958 1351.9 124.658" stroke="#A57CD1" stroke-miterlimit="10"/>
<path d="M32.3999 820.858C49.7999 775.158 96.9999 746.258 145.1 739.058C165.8 735.958 187 736.258 208 739.058C235.3 742.658 262.2 749.958 288.8 756.058C343 768.458 395.7 774.958 447.1 758.058C487.1 744.958 524.9 729.458 558.9 706.958C584.5 690.058 603.6 667.058 617.8 639.558C624.1 627.358 629.5 614.358 634.5 600.858C644.5 573.858 653.2 545.658 665.8 520.958C680.2 492.858 700.5 469.358 731.4 458.658C740.2 455.658 748.9 453.558 757.9 452.758C795.7 449.658 832.7 468.958 872.7 484.158C890.5 490.958 908.8 496.358 926.1 500.058C945.5 504.158 964.4 505.958 981.4 505.358C1014.3 504.158 1041.7 495.858 1057.4 478.958C1069.3 466.158 1072.3 450.258 1078.9 432.258C1092.5 395.258 1117.8 343.958 1150.5 293.658C1159.6 279.658 1169.3 265.858 1179.7 252.358C1226.6 191.558 1287.4 140.658 1348.2 114.158" stroke="#9B81D2" stroke-miterlimit="10"/>
<path d="M29.5 816.158C47.8 770.658 94.8 741.858 142.9 734.458C163.7 731.258 184.9 731.558 206 734.458C233.3 738.158 260.1 745.858 286.7 752.558C340.8 766.258 393.4 774.958 445.2 759.258C485.6 747.058 524 732.958 558.9 711.658C585.3 695.558 604.9 672.958 619.5 645.558C626 633.458 631.5 620.458 636.7 606.958C647 579.958 656 551.858 669 527.258C683.8 499.358 704.6 476.458 736.4 466.858C745.3 464.158 754.2 462.458 763.1 462.058C801 460.558 837.5 481.358 877.5 496.558C895.4 503.358 913.8 508.558 931.3 511.658C950.9 515.158 969.9 516.058 986.9 514.258C1019.6 510.758 1046.3 499.058 1059.8 480.058C1070.4 465.158 1071.1 447.858 1075.9 428.458C1085.8 388.458 1108.7 334.658 1140.9 282.758C1149.8 268.358 1159.5 254.058 1169.9 240.358C1217.2 178.158 1280.7 127.658 1344.3 104.058" stroke="#9187D4" stroke-miterlimit="10"/>
<path d="M26.7 811.358C45.9 766.158 92.7 737.258 140.9 729.758C161.7 726.558 183 726.758 204.1 729.758C231.5 733.658 258.2 741.758 284.7 749.058C338.7 763.958 391.2 774.958 443.5 760.458C484.3 749.158 523.3 736.458 559.1 716.358C586.3 701.058 606.3 678.858 621.4 651.658C628 639.658 633.8 626.758 639.1 613.258C649.7 586.358 659 558.158 672.4 533.858C687.7 506.158 708.9 483.758 741.6 475.258C750.7 472.858 759.6 471.558 768.6 471.558C806.7 471.658 842.6 493.958 882.6 509.258C900.5 516.058 919 520.958 936.7 523.558C956.5 526.458 975.6 526.358 992.6 523.358C1025.2 517.658 1051 502.458 1062.3 481.258C1071.5 464.158 1070 445.458 1072.9 424.658C1079 381.658 1099.7 325.258 1131.2 271.758C1139.9 256.858 1149.5 242.258 1160.1 228.158C1207.8 164.458 1274 114.458 1340.4 93.6582" stroke="#878CD5" stroke-miterlimit="10"/>
<path d="M23.8 806.658C43.9 761.758 90.5 732.858 138.8 725.258C159.6 721.958 181 722.158 202.1 725.258C229.5 729.258 256.2 737.758 282.6 745.658C336.5 761.758 388.9 775.158 441.6 761.758C482.7 751.358 522.4 740.058 559.1 721.158C587.2 706.658 607.6 684.858 623.1 657.858C629.9 645.958 635.9 633.058 641.4 619.558C652.4 592.658 662 564.458 675.8 540.358C691.5 512.858 713.2 491.058 746.7 483.658C755.9 481.658 765 480.658 774 481.058C812.2 482.758 847.6 506.558 887.5 521.858C905.4 528.758 924.1 533.258 941.9 535.358C961.9 537.658 981.1 536.658 998.1 532.458C1030.5 524.458 1055.4 505.858 1064.7 482.558C1072.4 463.258 1068.8 443.258 1069.9 420.958C1072.3 375.058 1090.7 316.058 1121.6 260.958C1130.2 245.558 1139.7 230.558 1150.3 216.258C1198.4 151.158 1267.3 101.658 1336.5 83.6582" stroke="#7D91D7" stroke-miterlimit="10"/>
<path d="M21 801.958C42 757.258 88.4 728.458 136.8 720.658C157.7 717.258 179.1 717.458 200.2 720.658C227.6 724.858 254.3 733.658 280.7 742.258C334.5 759.658 386.8 775.258 440 763.058C481.5 753.558 521.9 743.758 559.4 725.958C588.3 712.258 609.2 690.858 625.1 663.958C632.1 652.058 638.2 639.258 643.9 625.758C655.2 598.958 665.1 570.658 679.3 546.758C695.5 519.458 717.6 498.158 752 491.858C761.4 490.158 770.5 489.558 779.6 490.358C818 493.558 852.8 518.958 892.7 534.258C910.7 541.158 929.5 545.458 947.5 546.958C967.7 548.658 987.1 546.658 1004 541.258C1036.3 530.958 1060.2 509.058 1067.5 483.558C1073.6 462.058 1068 440.658 1067.3 417.058C1065.9 368.158 1082.1 306.658 1112.3 249.858C1120.7 234.058 1130.2 218.658 1140.9 203.958C1189.4 137.358 1261.1 88.3583 1333.1 73.2583" stroke="#7396D8" stroke-miterlimit="10"/>
<path d="M18.1001 797.158C39.9001 752.758 86.2001 723.858 134.6 715.958C155.5 712.558 177 712.658 198.2 716.058C225.6 720.358 252.3 729.658 278.6 738.758C332.3 757.358 384.4 775.258 438.1 764.258C480 755.658 521 747.258 559.4 730.658C589.1 717.758 610.4 696.758 626.8 670.058C634 658.258 640.3 645.558 646.1 632.058C657.7 605.258 668 576.958 682.5 553.258C699.1 526.158 721.6 505.458 757 500.258C766.6 498.858 775.8 498.658 784.9 499.858C823.4 504.658 857.7 531.458 897.5 546.858C915.5 553.858 934.5 557.758 952.6 558.758C972.9 559.758 992.5 556.958 1009.4 550.358C1041.6 537.858 1064.4 512.658 1069.8 484.758C1074.3 461.158 1066.7 438.358 1064.2 413.258C1059.1 361.358 1072.9 297.358 1102.6 238.958C1110.8 222.658 1120.3 206.858 1131.1 191.958C1180 123.958 1254.4 75.3582 1329.2 63.1582" stroke="#699CD9" stroke-miterlimit="10"/>
<path d="M15.3 792.458C38 748.358 84.1 719.458 132.6 711.358C153.5 707.858 175.1 707.958 196.3 711.458C223.7 715.958 250.3 725.558 276.6 735.258C330.2 755.158 382.2 775.358 436.3 765.458C478.6 757.758 520.3 750.758 559.5 735.358C590 723.358 611.8 702.658 628.6 676.158C636 664.458 642.4 651.758 648.5 638.258C660.4 611.558 671 583.158 685.9 559.658C702.9 532.858 725.9 512.558 762.2 508.558C771.9 507.458 781.2 507.658 790.4 509.258C829.1 515.658 862.8 543.958 902.6 559.358C920.7 566.358 939.8 570.058 958.1 570.458C978.6 570.858 998.3 567.058 1015.2 559.258C1047.2 544.458 1069 515.958 1072.5 485.858C1075.4 460.158 1065.7 435.958 1061.5 409.458C1052.5 354.658 1064.2 287.958 1093.2 228.058C1101.3 211.358 1110.7 195.158 1121.5 179.858C1170.8 110.358 1247.9 62.258 1325.5 52.958" stroke="#5FA1DB" stroke-miterlimit="10"/>
<path d="M12.3999 787.758C35.9999 743.958 81.8999 715.058 130.5 706.758C151.5 703.158 173.1 703.258 194.3 706.858C221.8 711.558 248.3 721.458 274.6 731.858C328.1 752.958 380 775.458 434.6 766.758C477.3 759.958 519.6 754.458 559.7 740.158C591.1 728.958 613.3 708.658 630.5 682.358C638.1 670.758 644.7 658.058 650.9 644.558C663.1 617.858 674 589.458 689.3 566.158C706.8 539.558 730.3 519.758 767.3 516.858C777.2 516.058 786.6 516.658 795.8 518.558C834.6 526.558 867.8 556.358 907.6 571.758C925.7 578.758 944.9 582.158 963.4 582.058C984.1 581.858 1004 577.158 1020.8 568.158C1052.7 551.058 1073.4 519.458 1074.9 486.858C1076.2 459.158 1064.5 433.358 1058.5 405.458C1045.8 347.758 1055.2 278.458 1083.5 216.858C1091.4 199.658 1100.8 183.058 1111.7 167.558C1161.4 96.658 1241.2 49.058 1321.6 42.458" stroke="#55A6DC" stroke-miterlimit="10"/>
<path d="M9.5 782.958C34 739.358 79.6 710.458 128.4 702.058C149.4 698.458 171 698.458 192.3 702.158C219.8 706.958 246.3 717.358 272.5 728.258C325.9 750.658 377.7 775.358 432.7 767.858C475.8 761.958 518.7 757.958 559.7 744.758C591.9 734.358 614.5 714.458 632.2 688.258C640 676.758 646.8 664.158 653.1 650.658C665.7 623.958 676.9 595.558 692.6 572.458C710.5 546.058 734.5 526.758 772.4 525.058C782.4 524.658 791.9 525.658 801.2 527.858C840.2 537.458 872.7 568.758 912.5 584.158C930.7 591.258 950 594.358 968.6 593.658C989.5 592.858 1009.5 587.158 1026.3 576.958C1058.1 557.658 1077.7 522.758 1077.3 487.858C1077 458.158 1063.4 430.858 1055.5 401.458C1039.1 340.758 1046.1 268.958 1073.9 205.758C1081.6 188.058 1091 171.158 1102 155.258C1152.1 82.8581 1234.7 35.7581 1317.8 32.0581" stroke="#4BABDE" stroke-miterlimit="10"/>
<path d="M6.69995 778.258C32 734.958 77.4999 706.058 126.3 697.458C147.3 693.758 169 693.758 190.4 697.558C217.9 702.558 244.4 713.258 270.5 724.858C323.8 748.458 375.5 775.558 431 769.158C474.5 764.158 518.1 761.558 559.8 749.558C592.8 740.058 615.9 720.458 634.1 694.458C642 683.058 649 670.458 655.6 656.958C668.5 630.358 680 601.858 696.1 578.958C714.5 552.758 738.9 533.958 777.7 533.358C787.9 533.258 797.5 534.658 806.7 537.258C845.8 548.458 877.8 581.258 917.6 596.758C935.8 603.858 955.3 606.658 974.1 605.458C995.2 604.058 1015.4 597.458 1032.1 586.058C1063.8 564.558 1082.3 526.458 1080 489.058C1078 457.358 1062.5 428.558 1052.8 397.758C1032.7 334.058 1037.4 259.758 1064.5 194.858C1072.1 176.758 1081.4 159.358 1092.4 143.258C1142.9 69.458 1228.2 22.758 1314.2 21.958" stroke="#41B1DF" stroke-miterlimit="10"/>
<path d="M3.80005 773.558C30 730.558 75.3001 701.658 124.2 692.958C145.3 689.158 167 689.158 188.4 693.058C215.9 698.158 242.4 709.258 268.4 721.458C321.6 746.358 373.2 775.658 429.1 770.458C473 766.358 517.2 765.358 559.8 754.358C593.6 745.758 617.2 726.458 635.8 700.658C643.9 689.358 651.1 676.758 657.8 663.258C671 636.658 682.9 608.158 699.3 585.458C718.1 559.458 743 541.058 782.7 541.758C793 541.958 802.7 543.758 812 546.758C851.3 559.558 882.7 593.758 922.5 609.358C940.8 616.458 960.4 619.058 979.3 617.258C1000.5 615.258 1020.9 607.658 1037.6 595.058C1069.2 571.258 1086.6 530.058 1082.4 490.258C1078.8 456.558 1061.3 426.158 1049.8 393.958C1025.9 327.358 1028.4 250.358 1054.9 183.958C1062.3 165.358 1071.6 147.658 1082.7 131.158C1133.6 55.8584 1221.6 9.75834 1310.4 11.7583" stroke="#37B6E1" stroke-miterlimit="10"/>
<path d="M1 768.758C39.8 707.558 115.5 674.758 186.5 688.358C270.2 704.358 343.3 777.658 427.4 771.558C471.7 768.358 516.5 768.758 560 758.958C609.8 747.758 637.6 713.658 660.2 669.358C689.2 612.458 711.9 546.458 787.9 549.958C842.8 552.458 878.4 602.458 927.5 621.758C966.3 636.958 1011.8 629.958 1043.3 603.858C1074.8 577.758 1091.1 533.558 1085 491.258C1079.8 455.558 1060.3 423.658 1047 389.958C1011.7 300.958 1021.8 195.558 1073.1 118.858C1124.4 42.1581 1215.2 -3.54186 1306.7 1.35814" stroke="#2DBBE2" stroke-miterlimit="10"/>
<path d="M5.3999 777.558C44.7999 721.158 120 690.658 190.5 703.158C225.8 709.358 259.3 725.158 292.4 740.358C326.3 756.058 359.6 771.258 394.4 775.758C405.6 777.158 417 777.558 428.5 776.358C471.8 771.858 515.6 770.758 558.9 760.558C608 749.058 636.3 716.358 659.7 674.558C665.1 664.958 670.3 655.158 675.6 645.458C691.2 616.958 707.8 589.958 734 575.058C748.7 566.658 766.3 561.958 788.3 562.758C842.5 564.558 878 610.358 925.5 626.858C931.8 629.058 938.3 630.658 944.8 631.658C977.3 636.658 1011.6 627.258 1036.7 605.158C1066.8 578.658 1082.4 534.858 1076.7 492.958C1071.9 457.458 1053.7 425.358 1041.4 391.658C1020.2 333.558 1017.8 268.758 1033.1 209.958C1041.3 178.558 1054.6 148.858 1072.6 122.658C1105.6 74.8582 1154.1 39.4581 1208.6 20.7581C1239.9 10.0581 1273.2 4.95815 1306.6 6.35815" stroke="#33B4E3" stroke-miterlimit="10"/>
<path d="M9.8999 786.358C49.7999 734.758 124.6 706.558 194.7 717.958C229.9 723.658 263.2 737.958 295.9 751.558C329.4 765.458 362.1 778.758 396.3 781.758C407.3 782.758 418.4 782.658 429.7 781.158C472.1 775.358 514.8 772.858 557.8 762.258C606.1 750.558 635 719.058 659.1 679.758C664.7 670.658 670.1 661.558 675.6 652.458C691.7 625.858 708.5 600.958 734.7 587.158C749.5 579.458 767 574.958 788.6 575.458C842.1 576.658 877.5 618.158 923.4 631.858C929.5 633.658 935.7 634.858 942 635.558C973.3 638.958 1006.1 628.658 1030 606.258C1058.7 579.358 1073.6 536.058 1068.4 494.558C1064.1 459.258 1047 427.058 1035.9 393.258C1016.5 335.158 1015.4 270.658 1031.5 212.558C1040.2 181.358 1053.9 152.058 1072.3 126.258C1105.8 79.2584 1154.4 44.6584 1209 25.9584C1240.3 15.2584 1273.4 10.0584 1306.7 11.2584" stroke="#38ADE5" stroke-miterlimit="10"/>
<path d="M14.3999 795.158C54.8999 748.358 129.2 722.358 198.8 732.658C233.8 737.758 267 750.758 299.4 762.558C332.6 774.758 364.7 785.958 398.2 787.558C409 788.058 419.9 787.558 430.9 785.758C472.4 778.658 514 774.558 556.8 763.658C604.4 751.558 633.8 721.558 658.7 684.758C664.4 676.258 670.1 667.758 675.7 659.358C692.3 634.758 709.3 611.758 735.5 599.158C750.3 592.058 767.8 587.758 789 588.058C841.8 588.558 877 625.958 921.5 636.758C927.4 638.158 933.4 639.058 939.5 639.458C969.6 641.258 1000.9 630.058 1023.7 607.358C1051.1 580.158 1065.2 537.258 1060.5 496.158C1056.6 460.958 1040.8 428.658 1030.7 394.858C1013.2 336.758 1013.2 272.558 1030.2 215.158C1039.4 184.158 1053.5 155.258 1072.2 129.958C1106.2 83.758 1154.9 49.958 1209.5 31.258C1240.7 20.658 1273.8 15.358 1307 16.158" stroke="#3EA6E6" stroke-miterlimit="10"/>
<path d="M18.8999 803.958C59.9999 761.858 133.8 738.258 203 747.458C237.9 751.958 270.9 763.558 303 773.758C335.9 784.158 367.3 793.358 400.2 793.558C410.8 793.658 421.4 792.758 432.2 790.558C472.8 782.258 513.3 776.658 555.9 765.358C602.7 752.958 632.7 724.358 658.3 689.958C664.2 682.058 670.1 674.158 675.9 666.358C693 643.658 710.2 622.658 736.4 611.258C751.3 604.758 768.7 600.958 789.5 600.858C841.6 600.658 876.6 633.858 919.6 641.858C925.3 642.958 931.1 643.458 936.9 643.458C965.8 643.658 995.5 631.558 1017.2 608.558C1043.2 580.958 1056.5 538.558 1052.4 497.758C1048.9 462.758 1034.4 430.258 1025.4 396.458C1009.7 338.258 1011 274.458 1028.9 217.658C1038.6 186.858 1053.2 158.458 1072.1 133.458C1106.6 88.0583 1155.4 54.9583 1210.1 36.4583C1241.3 25.8583 1274.2 20.4583 1307.3 21.0583" stroke="#43A0E8" stroke-miterlimit="10"/>
<path d="M23.3 812.658C65 775.358 138.3 754.058 207 762.058C241.7 766.058 274.7 776.258 306.4 784.658C338.9 793.358 369.7 800.558 402 799.258C412.4 798.858 422.8 797.558 433.3 795.058C473 785.458 512.4 778.358 554.7 766.658C600.8 753.958 631.3 726.658 657.7 694.858C663.8 687.458 669.9 680.258 675.9 673.158C693.4 652.358 711 633.458 737.2 623.158C752.2 617.258 769.4 613.558 789.9 613.358C841.3 612.758 876.2 641.458 917.6 646.658C923.1 647.358 928.7 647.458 934.2 647.258C961.8 645.958 990.1 632.858 1010.6 609.558C1035.3 581.558 1047.8 539.558 1044.2 499.258C1041.1 464.458 1027.9 431.858 1019.9 397.958C1006.1 339.758 1008.6 276.258 1027.3 220.158C1037.5 189.558 1052.5 161.558 1071.7 137.058C1106.7 92.4583 1155.6 60.1583 1210.4 41.6583C1241.5 31.1583 1274.3 25.6583 1307.3 25.8583" stroke="#4999E9" stroke-miterlimit="10"/>
<path d="M27.8 821.458C70.1 788.958 142.9 769.858 211.1 776.858C245.6 780.258 278.5 789.058 309.9 795.858C342.1 802.758 372.2 807.958 403.9 805.258C414.1 804.358 424.2 802.758 434.5 799.858C473.3 788.958 511.6 780.358 553.7 768.358C599 755.358 630.1 729.458 657.2 700.058C663.5 693.258 669.8 686.658 675.9 680.158C693.9 661.258 711.7 644.358 737.9 635.258C752.9 629.958 770.1 626.558 790.2 626.058C841 624.758 875.7 649.258 915.5 651.658C920.8 651.958 926.1 651.758 931.5 651.158C957.9 648.258 984.7 634.258 1004.1 610.658C1027.4 582.258 1039.2 540.758 1036.1 500.858C1033.4 466.258 1021.4 433.458 1014.6 399.558C1002.6 341.358 1006.5 278.158 1025.9 222.758C1036.6 192.358 1052 164.758 1071.5 140.658C1106.9 96.8582 1155.9 65.3582 1210.8 46.8582C1241.9 36.3582 1274.6 30.7582 1307.5 30.6582" stroke="#4F92EA" stroke-miterlimit="10"/>
<path d="M32.3 830.258C75.1 802.558 147.6 785.758 215.3 791.658C249.7 794.458 282.4 801.958 313.5 806.958C345.4 812.158 374.9 815.258 405.9 811.158C415.9 809.858 425.8 807.758 435.8 804.558C473.7 792.458 511 782.258 552.7 769.858C597.3 756.658 628.9 731.958 656.8 705.158C663.3 698.858 669.8 692.958 676.1 687.158C694.6 670.258 712.7 655.358 738.8 647.358C753.9 642.758 771 639.558 790.7 638.758C840.8 636.858 875.3 657.158 913.6 656.658C918.7 656.558 923.8 656.058 928.9 655.158C954.1 650.658 979.3 635.758 997.6 611.858C1019.5 583.058 1030.6 542.058 1028 502.458C1025.7 467.958 1015.1 435.058 1009.2 401.058C999.2 342.858 1004.2 279.958 1024.5 225.258C1035.7 195.058 1051.5 167.958 1071.3 144.258C1107.2 101.258 1156.3 70.5582 1211.3 52.1582C1242.3 41.7582 1274.9 36.0582 1307.7 35.6582" stroke="#548BEC" stroke-miterlimit="10"/>
<path d="M36.8 839.058C80.2001 816.158 152.2 801.758 219.4 806.358C253.6 808.758 286.2 814.658 317 818.058C348.5 821.458 377.4 822.558 407.8 817.058C417.6 815.258 427.2 812.758 437 809.258C473.9 795.858 510.2 784.258 551.7 771.458C595.6 757.958 627.8 734.658 656.4 710.258C663.1 704.558 669.8 699.258 676.3 694.058C695.2 679.058 713.6 666.258 739.7 659.358C754.9 655.358 771.9 652.458 791.2 651.458C840.6 648.958 875 664.958 911.7 661.658C916.6 661.258 921.5 660.358 926.3 659.158C950.3 653.058 974 637.258 991.1 613.058C1011.7 583.858 1022 543.258 1019.8 504.158C1017.9 469.858 1008.6 436.858 1003.8 402.758C995.6 344.558 1001.9 281.958 1023 227.958C1034.7 197.958 1051 171.258 1071 148.058C1107.4 105.858 1156.6 75.9582 1211.6 57.5582C1242.5 47.1582 1275.1 41.4582 1307.7 40.6582" stroke="#5A84ED" stroke-miterlimit="10"/>
<path d="M41.2 847.858C85.2 829.758 156.7 817.658 223.5 821.158C257.6 822.958 290 827.558 320.5 829.158C351.7 830.858 379.9 829.958 409.7 822.958C419.2 820.758 428.7 817.858 438.2 813.958C474.2 799.258 509.4 786.158 550.6 773.058C593.7 759.258 626.5 737.358 655.8 715.458C662.7 710.358 669.6 705.658 676.3 701.058C695.7 687.958 714.4 677.158 740.4 671.458C755.7 668.058 772.5 665.358 791.5 664.158C840.2 660.958 874.5 672.758 909.6 666.658C914.3 665.858 919 664.558 923.5 663.058C946.3 655.358 968.5 638.658 984.4 614.158C1003.6 584.658 1013.2 544.458 1011.5 505.658C1010.1 471.558 1001.9 438.358 998.3 404.258C992 346.058 999.5 283.758 1021.5 230.458C1033.7 200.658 1050.4 174.358 1070.7 151.558C1107.6 110.158 1156.9 81.058 1212 62.658C1242.9 52.358 1275.3 46.458 1307.9 45.458" stroke="#607DEE" stroke-miterlimit="10"/>
<path d="M45.7 856.658C90.2999 843.258 161.3 833.558 227.6 835.958C261.5 837.158 293.8 840.358 324 840.358C354.9 840.358 382.4 837.358 411.6 828.958C420.9 826.258 430.1 822.958 439.4 818.758C474.5 802.758 508.6 788.258 549.6 774.658C592 760.658 625.4 739.958 655.4 720.658C662.5 716.058 669.6 712.058 676.4 708.158C696.2 696.958 715.3 688.258 741.2 683.658C756.6 680.958 773.3 678.458 791.9 676.958C839.9 673.158 874.1 680.558 907.6 671.758C912.1 670.558 916.5 668.958 920.9 667.158C942.5 657.958 963.1 640.258 978 615.458C995.9 585.558 1004.7 545.858 1003.5 507.458C1002.5 473.558 995.6 440.258 993 406.058C988.5 347.858 997.4 285.858 1020.1 233.258C1032.9 203.758 1049.9 177.758 1070.6 155.458C1108 114.858 1157.4 86.5581 1212.6 68.1581C1243.4 57.8581 1275.7 51.9581 1308.2 50.5581" stroke="#6576F0" stroke-miterlimit="10"/>
<path d="M50.2 865.358C95.4 856.758 165.9 849.258 231.8 850.558C265.6 851.258 297.7 853.058 327.5 851.258C358 849.458 384.9 844.458 413.5 834.658C422.6 831.458 431.6 827.758 440.6 823.258C474.8 805.958 507.8 789.958 548.6 776.058C590.3 761.758 624.3 742.458 654.9 725.558C662.2 721.558 669.4 718.058 676.5 714.858C696.8 705.558 716.1 698.958 742 695.458C757.5 693.358 774.1 691.158 792.4 689.458C839.7 684.958 873.7 688.158 905.7 676.558C910 674.958 914.2 673.058 918.3 670.858C938.7 660.058 957.8 641.458 971.5 616.358C988 586.058 996.1 546.758 995.4 508.858C994.8 475.058 989.2 441.658 987.7 407.458C985.1 349.158 995.2 287.558 1018.7 235.658C1032 206.358 1049.5 180.858 1070.4 158.858C1108.3 119.058 1157.8 91.5579 1213 73.2579C1243.8 63.0579 1276 56.9579 1308.3 55.3579" stroke="#6B70F1" stroke-miterlimit="10"/>
<path d="M54.7 874.158C100.4 870.358 170.5 865.158 235.9 865.358C269.5 865.458 301.5 865.958 331 862.358C361.2 858.858 387.5 851.858 415.4 840.558C424.3 836.958 433.1 832.858 441.8 827.958C475.1 809.358 507 791.958 547.5 777.558C588.4 763.058 623 745.058 654.4 730.658C661.9 727.258 669.3 724.358 676.6 721.858C697.3 714.458 717 709.958 742.8 707.658C758.3 706.258 774.9 704.258 792.8 702.258C839.4 697.158 873.3 696.058 903.7 681.658C907.8 679.658 911.8 677.458 915.6 674.958C934.8 662.558 952.3 643.058 964.9 617.658C980 586.958 987.4 548.158 987.2 510.558C987 476.958 982.7 443.458 982.2 409.158C981.4 350.858 992.9 289.558 1017.2 238.358C1031 209.258 1048.9 184.158 1070.1 162.658C1108.5 123.558 1158.1 96.9579 1213.4 78.6579C1244.1 68.4579 1276.2 62.3579 1308.5 60.3579" stroke="#7069F3" stroke-miterlimit="10"/>
<path d="M59.1001 882.958C105.4 883.958 175 880.958 239.9 880.158C273.3 879.658 305.2 878.758 334.4 873.558C364.3 868.258 389.9 859.258 417.2 846.558C425.9 842.458 434.4 837.958 442.8 832.758C475.2 812.858 506 793.958 546.3 779.258C586.5 764.558 621.7 747.858 653.7 735.858C661.4 732.958 669 730.758 676.4 728.858C697.5 723.358 717.6 720.958 743.3 719.758C758.9 718.958 775.4 717.158 792.9 714.958C838.8 709.158 872.6 703.858 901.4 686.558C905.3 684.258 909.1 681.558 912.7 678.758C930.7 664.758 946.7 644.358 958.2 618.658C972 587.558 978.6 549.258 978.9 512.058C979.2 478.658 976 444.958 976.7 410.658C977.8 352.358 990.5 291.358 1015.6 240.858C1029.9 211.958 1048.2 187.258 1069.7 166.158C1108.6 127.858 1158.3 102.058 1213.7 83.7581C1244.4 73.6581 1276.3 67.3581 1308.5 65.0581" stroke="#7662F4" stroke-miterlimit="10"/>
<path d="M63.6001 891.758C110.5 897.558 179.7 896.858 244.1 894.858C277.4 893.858 309.1 891.558 338 884.558C367.5 877.558 392.5 866.558 419.2 852.358C427.7 847.858 436 842.858 444.1 837.358C475.5 816.158 505.3 795.858 545.3 780.658C584.8 765.658 620.6 750.358 653.3 740.858C661.2 738.558 669 736.958 676.6 735.658C698.2 732.058 718.5 731.058 744.2 731.658C759.9 731.958 776.2 729.958 793.4 727.458C838.6 721.058 872.2 711.358 899.5 691.358C903.2 688.658 906.7 685.658 910.1 682.558C926.9 666.958 941.4 645.658 951.7 619.658C964.1 588.158 970 550.258 970.8 513.558C971.5 480.358 969.6 446.458 971.3 412.158C974.2 353.858 988.3 293.158 1014.1 243.258C1029 214.558 1047.6 190.358 1069.4 169.658C1108.8 132.158 1158.6 107.158 1214 88.958C1244.6 78.858 1276.5 72.558 1308.5 69.958" stroke="#7C5BF5" stroke-miterlimit="10"/>
<path d="M68.1001 900.558C115.6 911.158 184.3 912.558 248.2 909.658C281.3 907.958 313 904.358 341.5 895.758C370.7 886.958 395 873.958 421.1 858.358C429.4 853.358 437.4 848.058 445.3 842.158C475.8 819.558 504.6 797.958 544.3 782.358C583 767.158 619.5 753.258 652.9 746.058C661 744.358 669 743.358 676.8 742.758C698.8 741.058 719.5 742.958 745.2 743.858C761 744.458 777.2 742.958 794 740.358C838.5 733.258 872 719.358 897.7 696.558C901.2 693.458 904.5 690.158 907.6 686.758C923.2 669.658 936.1 647.358 945.3 621.058C956.4 589.158 961.5 551.758 962.7 515.358C963.9 482.258 963.1 448.358 966 413.858C970.6 355.558 986.1 295.158 1012.8 245.958C1028.2 217.458 1047.3 193.658 1069.3 173.458C1109.2 136.758 1159 112.458 1214.6 94.358C1245.2 84.358 1276.9 77.858 1308.9 74.958" stroke="#8154F7" stroke-miterlimit="10"/>
<path d="M72.5 909.358C120.6 924.758 188.8 928.458 252.3 924.358C285.3 922.158 316.8 917.158 345 906.758C373.9 896.258 397.6 881.258 423 864.058C431.1 858.658 438.9 852.858 446.5 846.658C476.1 822.758 503.8 799.758 543.3 783.658C581.3 768.258 618.4 755.658 652.4 750.958C660.7 749.858 668.9 749.558 676.9 749.458C699.3 749.158 720.4 753.658 746 755.658C761.9 756.858 778 755.658 794.4 752.758C838.2 744.958 871.5 726.758 895.7 701.258C899 697.758 902.1 694.058 905 690.358C919.3 671.658 930.8 648.458 938.9 621.858C948.6 589.658 953 552.658 954.7 516.658C956.3 483.758 956.8 449.658 960.7 415.158C967.2 356.858 984 296.758 1011.4 248.258C1027.3 220.058 1046.8 196.558 1069.1 176.758C1109.4 140.858 1159.4 117.358 1215.1 99.2581C1245.6 89.3581 1277.2 82.7581 1309.1 79.5581" stroke="#874DF8" stroke-miterlimit="10"/>
<path d="M77 918.158C125.6 938.258 193.4 944.358 256.4 939.158C289.2 936.358 320.6 929.958 348.5 917.958C377 905.658 400.1 888.658 424.9 870.058C432.8 864.158 440.3 857.958 447.7 851.458C476.4 826.258 503 801.758 542.2 785.358C579.5 769.658 617.2 758.558 651.9 756.158C660.4 755.558 668.8 755.858 676.9 756.558C699.8 758.558 721.1 764.758 746.7 767.858C762.7 769.758 778.7 768.758 794.7 765.558C837.8 757.058 871 734.658 893.6 706.358C896.7 702.458 899.6 698.458 902.2 694.458C915.3 674.158 925.3 650.058 932.2 623.158C940.5 590.558 944.2 553.958 946.4 518.458C948.4 485.758 950.2 451.558 955.2 416.958C963.5 358.658 981.7 298.958 1009.8 251.058C1026.3 223.058 1046.1 199.958 1068.8 180.658C1109.6 145.558 1159.7 122.858 1215.4 104.758C1245.9 94.8582 1277.4 88.1582 1309.1 84.6582" stroke="#8D46F9" stroke-miterlimit="10"/>
<path d="M81.5 926.858C130.7 951.758 198 960.058 260.5 953.858C293.1 950.458 324.4 942.758 352 928.958C380.2 914.958 402.7 895.958 426.8 875.858C434.5 869.558 441.7 862.858 448.9 856.058C476.6 829.458 502.2 803.658 541.2 786.758C577.8 770.858 616 760.658 651.4 761.158C660.1 761.258 668.7 761.958 677 763.358C700.3 767.258 722 775.658 747.5 779.758C763.5 782.358 779.4 781.458 795.1 778.058C837.5 768.958 870.5 742.158 891.6 711.158C894.5 706.958 897.1 702.558 899.5 698.158C911.4 676.258 919.8 651.258 925.6 624.058C932.6 591.058 935.5 554.958 938.2 519.758C940.7 487.258 943.6 452.858 949.8 418.258C960 359.958 979.5 300.558 1008.4 253.358C1025.4 225.558 1045.7 202.958 1068.6 183.958C1109.9 149.658 1160.1 127.758 1215.9 109.758C1246.3 99.9583 1277.7 93.1583 1309.4 89.2583" stroke="#9240FB" stroke-miterlimit="10"/>
<path d="M86 935.658C135.8 965.358 202.6 975.958 264.7 968.558C297.2 964.658 328.3 955.458 355.6 940.058C383.5 924.258 405.3 903.258 428.8 881.758C436.2 874.958 443.3 867.958 450.2 860.758C477 832.858 501.6 805.658 540.2 788.358C576.1 772.258 614.9 763.858 651 766.358C659.9 766.958 668.6 768.358 677.2 770.458C701 776.158 722.9 786.758 748.4 791.958C764.5 795.258 780.3 794.558 795.6 790.958C837.3 781.158 870.1 750.158 889.7 716.358C892.4 711.758 894.8 707.058 896.9 702.358C907.6 678.858 914.5 652.958 919.1 625.458C924.7 592.058 927 556.458 930.1 521.658C933.1 489.258 937.2 454.758 944.4 420.158C956.4 361.858 977.3 302.858 1006.9 256.258C1024.5 228.758 1045.1 206.458 1068.3 187.958C1110.1 154.458 1160.4 133.358 1216.3 115.358C1246.6 105.558 1277.9 98.7581 1309.5 94.5581" stroke="#9839FC" stroke-miterlimit="10"/>
<path d="M90.3999 944.458C140.8 978.958 207.1 991.858 268.7 983.358C301 978.858 332 968.358 359 951.158C386.5 933.658 407.7 910.658 430.6 887.658C437.8 880.458 444.6 872.958 451.3 865.458C477.1 836.258 500.7 807.758 539.1 789.958C574.3 773.758 613.6 766.658 650.4 771.458C659.5 772.658 668.4 774.658 677.1 777.358C701.3 784.858 723.6 797.758 749 803.958C765.2 807.958 780.9 807.358 795.8 803.558C836.8 792.958 869.4 757.758 887.5 721.258C890 716.258 892.2 711.158 894.1 706.158C903.6 681.158 909 654.258 912.5 626.458C916.8 592.658 918.3 557.458 921.9 523.158C925.3 490.958 930.7 456.358 939 421.658C952.9 363.258 975.1 304.658 1005.4 258.758C1023.5 231.458 1044.5 209.558 1068 191.458C1110.3 158.758 1160.7 138.458 1216.6 120.458C1246.9 110.758 1278.1 103.758 1309.5 99.2583" stroke="#9D32FE" stroke-miterlimit="10"/>
<path d="M94.8999 953.258C172.7 1013.16 285.3 1017.06 362.5 962.258C389.7 942.958 410.2 917.958 432.5 893.558C466.8 855.958 490.1 814.358 538 791.458C581 770.858 632.5 767.158 677.2 784.258C701.9 793.658 724.4 808.658 749.8 815.958C817.3 835.258 873.4 768.058 891.4 710.158C909.8 651.158 906.2 586.758 913.7 524.858C924 439.158 954.2 333.558 1003.9 261.358C1056.2 185.458 1129.9 153.658 1217 125.858C1247.2 116.158 1278.3 109.158 1309.7 104.358" stroke="#A32BFF" stroke-miterlimit="10"/>
</svg>
