<svg width="1215" height="982" viewBox="0 0 1215 982" fill="none" xmlns="http://www.w3.org/2000/svg">
<path d="M1 322.644C44.3 288.244 90.6 257.144 141.3 243.444C191.9 229.844 247.7 235.644 288.4 270.044C337 311.144 359.8 387.744 415.1 416.044C450.9 434.344 492.7 428.344 532.4 425.244C572.2 422.144 615.6 423.744 645 453.244C697.7 506.144 678.9 620.744 736 667.344C773.7 698.044 826.1 684.044 872.9 687.644C932.1 692.244 987.7 728.944 1020.2 784.944C1052.7 840.944 1061.4 915.144 1043.4 981.544" stroke="#1C2226" stroke-miterlimit="10"/>
<path d="M6.3999 314.144C49.4999 280.244 95.7999 249.944 146.2 236.944C176.6 229.044 208.9 228.144 238.6 236.144C258 241.344 276.3 250.444 292.3 263.744C340.8 304.244 364.5 379.144 418.5 408.444C437.7 418.844 458.4 422.544 479.9 423.244C498.1 423.844 516.8 422.344 535.2 421.244C561 419.644 588.5 419.544 612.7 427.144C626.1 431.344 638.5 437.844 649.1 447.644C670 466.844 680.7 494.744 689.3 524.544C701.8 567.444 710.2 614.444 737.6 644.944C740.5 648.244 743.7 651.244 747.1 654.144C784.5 685.544 834.7 674.544 878.8 680.144C922 685.744 962.6 709.944 993.4 747.244C1002.3 758.044 1010.3 769.944 1017.4 782.744C1030.1 805.844 1039.4 831.744 1045.1 858.644C1053.7 898.644 1054.4 940.744 1046.1 979.444" stroke="#23292E" stroke-miterlimit="10"/>
<path d="M11.7002 305.544C54.7002 272.244 100.9 242.744 151.1 230.244C181.4 222.644 213.4 221.944 242.9 229.944C262.2 235.144 280.4 244.044 296.4 257.244C344.8 297.044 369.2 370.344 422 400.544C441 411.344 461.2 416.044 482.5 417.544C500.6 418.844 519.4 417.844 537.9 416.944C563.9 415.744 591.6 415.644 616.1 422.644C629.6 426.544 642.1 432.544 653.1 441.844C674.5 459.844 686.3 486.044 696 514.344C710.1 555.044 720.7 600.444 748.5 631.344C751.5 634.644 754.6 637.744 758 640.644C795.2 672.644 843 664.644 884.4 672.444C924.9 680.044 962.4 705.544 991.3 743.844C999.7 754.944 1007.4 767.144 1014.2 780.244C1026.5 803.844 1035.9 830.144 1042.2 857.244C1051.6 897.544 1054.3 939.344 1048.5 977.044" stroke="#2A2F37" stroke-miterlimit="10"/>
<path d="M17 297.044C59.8 264.244 106 235.544 156 223.644C186.1 216.444 217.8 215.844 247.1 223.844C266.2 229.044 284.3 237.844 300.3 250.844C348.7 290.044 373.9 361.744 425.5 392.744C444.2 404.044 464 409.644 485.2 411.844C503.2 413.844 522 413.244 540.7 412.744C566.9 411.944 594.9 411.844 619.6 418.244C633.3 421.844 646 427.444 657.2 436.044C679.2 452.844 691.9 477.244 702.8 504.144C718.6 542.744 731.4 586.344 759.5 617.744C762.5 621.044 765.6 624.244 769 627.244C806 659.944 851.5 654.944 890.1 664.744C928 674.344 962.2 701.144 989.4 740.544C997.3 751.944 1004.6 764.544 1011.2 777.844C1023.1 802.044 1032.6 828.644 1039.4 855.944C1049.7 896.544 1054.3 938.044 1051 974.644" stroke="#31363F" stroke-miterlimit="10"/>
<path d="M22.2998 288.544C64.9998 256.344 111.1 228.444 160.8 217.044C190.7 210.144 222.2 209.744 251.3 217.744C270.3 222.944 288.3 231.644 304.2 244.344C352.6 282.944 378.5 353.044 428.9 384.944C447.4 396.644 466.7 403.144 487.7 406.244C505.6 408.844 524.5 408.844 543.4 408.644C569.8 408.244 598 408.044 623.1 413.944C636.9 417.144 649.8 422.444 661.3 430.344C683.9 445.944 697.5 468.744 709.6 493.944C727 530.344 742 572.344 770.6 604.144C773.6 607.544 776.8 610.744 780.1 613.744C816.8 647.044 860.1 645.044 896 656.944C931.2 668.544 962.2 696.644 987.6 737.144C995 748.944 1001.9 761.744 1008.3 775.344C1019.8 800.044 1029.4 827.144 1036.8 854.544C1048 895.444 1054.4 936.644 1053.7 972.244" stroke="#383C47" stroke-miterlimit="10"/>
<path d="M27.6001 279.944C70.2001 248.244 116.2 221.144 165.7 210.344C195.4 203.744 226.6 203.644 255.6 211.544C274.5 216.744 292.4 225.344 308.2 237.844C356.5 275.844 383.3 344.344 432.4 377.044C450.7 389.244 469.5 396.644 490.4 400.444C508.2 403.744 527.2 404.244 546.2 404.244C572.7 404.244 601.3 404.044 626.6 409.344C640.6 412.244 653.6 417.044 665.3 424.344C688.5 438.744 703.1 459.844 716.3 483.544C735.3 517.844 752.6 558.144 781.5 590.344C784.6 593.744 787.7 597.044 791 600.144C827.5 634.044 868.5 635.144 901.6 649.044C934.2 662.744 961.9 692.044 985.6 733.544C992.5 745.644 999 758.844 1005.2 772.644C1016.3 797.844 1026 825.344 1033.9 852.844C1045.9 893.944 1054.3 934.944 1056.1 969.544" stroke="#3F4350" stroke-miterlimit="10"/>
<path d="M32.8999 271.444C75.2999 240.244 121.3 214.044 170.6 203.744C200.1 197.444 231.1 197.544 259.8 205.444C278.5 210.644 296.3 219.144 312.1 231.444C360.4 268.844 387.9 335.744 435.8 369.244C453.9 381.944 472.2 390.244 493 394.744C510.7 398.644 529.7 399.744 548.9 400.044C575.6 400.444 604.4 400.244 630 405.044C644.1 407.644 657.3 412.044 669.3 418.644C693 431.844 708.7 451.244 723 473.444C743.7 505.544 763.1 544.244 792.4 576.844C795.5 580.244 798.7 583.544 802 586.744C838.3 621.344 877 625.444 907.4 641.444C937.3 657.144 961.9 687.844 983.7 730.344C990.1 742.744 996.3 756.244 1002.2 770.344C1012.9 796.144 1022.7 823.944 1031.2 851.644C1044.1 893.044 1054.4 933.744 1058.7 967.344" stroke="#464958" stroke-miterlimit="10"/>
<path d="M38.2998 262.844C80.5998 232.244 126.5 206.844 175.5 197.044C204.8 191.144 235.5 191.344 264.1 199.244C282.7 204.444 300.4 212.844 316.1 224.844C364.3 261.544 392.6 327.044 439.2 361.344C457.1 374.544 474.9 383.644 495.5 389.044C513.1 393.644 532.2 395.144 551.5 395.744C578.4 396.544 607.5 396.244 633.3 400.544C647.6 402.844 661 406.744 673.2 412.844C697.5 424.844 714.1 442.444 729.6 463.244C751.9 493.244 773.5 530.244 803.3 563.244C806.4 566.744 809.6 570.044 812.9 573.244C849 608.444 885.4 615.644 913 633.644C940.3 651.444 961.6 683.344 981.7 726.944C987.6 739.744 993.4 753.444 999.1 767.944C1009.4 794.244 1019.2 822.544 1028.3 850.344C1042 892.044 1054.3 932.544 1061.1 965.044" stroke="#4D5060" stroke-miterlimit="10"/>
<path d="M43.6001 254.344C85.8001 224.244 131.6 199.644 180.4 190.444C209.6 184.844 240 185.244 268.3 193.144C286.8 198.244 304.3 206.644 320.1 218.444C368.3 254.544 397.3 318.544 442.7 353.544C460.4 367.144 477.8 377.244 498.2 383.344C515.7 388.544 534.9 390.644 554.4 391.544C581.5 392.744 610.8 392.444 637 396.144C651.4 398.144 665 401.644 677.5 407.044C702.4 417.844 720 433.744 736.6 453.044C760.6 480.844 784.4 516.244 814.5 549.644C817.6 553.144 820.8 556.544 824.1 559.844C859.9 595.744 894.2 606.044 918.9 625.944C943.7 645.844 961.6 678.944 980 723.544C985.4 736.644 990.8 750.744 996.3 765.444C1006.2 792.244 1016.1 820.944 1025.8 848.944C1040.4 890.944 1054.6 931.144 1063.9 962.644" stroke="#545669" stroke-miterlimit="10"/>
<path d="M48.8999 245.844C90.8999 216.344 136.8 192.544 185.3 183.844C214.3 178.544 244.5 179.144 272.6 187.044C290.9 192.144 308.4 200.344 324.1 212.044C372.3 247.544 402 309.944 446.2 345.844C463.7 359.944 480.6 370.944 500.9 377.844C518.3 383.744 537.5 386.344 557.2 387.544C584.5 389.144 614 388.844 640.5 391.944C655.1 393.644 668.9 396.644 681.5 401.444C707 411.044 725.6 425.244 743.3 443.044C768.9 468.744 794.9 502.444 825.4 536.244C828.6 539.744 831.8 543.244 835 546.544C870.6 583.044 902.6 596.544 924.6 618.344C946.8 640.444 961.4 674.744 978 720.344C982.9 733.744 988 748.144 993.2 763.144C1002.7 790.444 1012.7 819.544 1022.9 847.744C1038.4 890.044 1054.5 929.944 1066.3 960.444" stroke="#5B5D71" stroke-miterlimit="10"/>
<path d="M54.2002 237.244C96.1002 208.244 141.9 185.244 190.1 177.144C218.9 172.244 248.8 173.044 276.8 180.844C295 185.944 312.4 194.044 328 205.444C376.1 240.344 406.5 301.244 449.6 337.844C466.8 352.444 483.3 364.344 503.4 371.944C520.7 378.544 540 381.544 559.8 383.044C587.3 385.044 617.1 384.744 643.8 387.244C658.5 388.644 672.5 391.144 685.4 395.344C711.5 403.744 731 416.244 749.9 432.544C777.2 456.044 805.4 488.144 836.3 522.244C839.5 525.844 842.7 529.344 846 532.744C881.4 569.944 911.2 586.544 930.3 610.344C949.9 634.544 961.2 670.044 976.1 716.744C980.5 730.544 985.2 745.244 990.2 760.444C999.3 788.344 1009.4 817.844 1020.2 846.144C1036.5 888.744 1054.6 928.344 1068.9 957.844" stroke="#626379" stroke-miterlimit="10"/>
<path d="M59.5 228.744C101.3 200.344 147 178.144 195 170.544C223.6 165.944 253.3 166.944 281 174.744C299.1 179.844 316.3 187.844 331.9 199.044C380 233.344 411.1 292.844 453 330.044C470 345.144 486 357.944 506 366.344C523.2 373.544 542.6 377.144 562.5 378.944C590.1 381.344 620.2 380.944 647.2 382.944C662.1 384.044 676.2 386.144 689.4 389.644C716.1 396.844 736.6 407.644 756.6 422.444C785.6 443.844 815.9 474.144 847.2 508.744C850.4 512.344 853.7 515.844 856.9 519.344C892.1 557.144 919.6 577.044 936 602.644C952.9 629.144 961 665.744 974.1 713.344C978 727.444 982.3 742.444 987.1 757.944C995.8 786.344 1006 816.244 1017.3 844.744C1034.5 887.644 1054.5 926.944 1071.3 955.444" stroke="#696A82" stroke-miterlimit="10"/>
<path d="M64.7998 220.144C106.4 192.244 152.1 170.844 199.9 163.844C228.3 159.544 257.7 160.744 285.3 168.544C303.3 173.644 320.4 181.544 335.9 192.544C383.9 226.144 415.8 284.244 456.5 322.244C473.3 337.844 488.8 351.544 508.7 360.644C525.8 368.544 545.2 372.644 565.4 374.644C593.2 377.444 623.6 377.044 650.9 378.444C666 379.244 680.3 380.844 693.7 383.744C721.1 389.744 742.5 398.844 763.6 412.144C794.3 431.344 826.8 460.044 858.4 495.044C861.7 498.644 864.9 502.244 868.1 505.844C903 544.244 928.2 567.444 941.9 594.844C956.2 623.544 961 661.244 972.4 709.944C975.8 724.444 979.8 739.744 984.3 755.444C992.6 784.344 1002.9 814.644 1014.8 843.344C1032.9 886.544 1054.8 925.544 1074.1 953.044" stroke="#70708A" stroke-miterlimit="10"/>
<path d="M70.2002 211.644C111.7 184.344 157.3 163.744 204.8 157.244C233 153.344 262.2 154.644 289.5 162.444C307.3 167.544 324.3 175.344 339.8 186.044C387.8 219.044 420.3 275.644 459.9 314.344C476.5 330.544 491.5 344.944 511.2 354.944C528.2 363.544 547.7 368.144 568 370.444C596 373.644 626.6 373.244 654.2 374.044C669.4 374.544 683.9 375.744 697.5 378.044C725.5 382.744 747.9 390.244 770.1 402.044C802.4 419.144 837.1 446.144 869.2 481.544C872.5 485.244 875.7 488.844 878.9 492.444C913.6 531.544 936.5 557.944 947.4 587.144C959 618.144 960.6 656.944 970.3 706.644C973.2 721.444 976.8 737.044 981.1 753.044C989 782.544 999.4 813.244 1011.8 841.944C1030.7 885.444 1054.6 924.144 1076.4 950.544" stroke="#777792" stroke-miterlimit="10"/>
<path d="M75.5 203.144C116.9 176.344 162.4 156.644 209.7 150.644C237.8 147.044 266.7 148.644 293.8 156.344C311.5 161.444 328.4 169.144 343.9 179.644C391.8 212.044 425 267.244 463.5 306.544C479.8 323.244 494.4 338.544 514 349.244C530.9 358.444 550.5 363.544 570.9 366.244C599.1 369.844 630 369.344 657.8 369.644C673.2 369.844 687.9 370.544 701.7 372.244C730.3 375.744 753.7 381.544 777 391.744C811 406.644 847.8 432.044 880.3 467.844C883.6 471.544 886.9 475.244 890 478.944C924.5 518.644 945 548.344 953.3 579.444C962.2 612.644 960.6 652.544 968.5 703.244C970.9 718.344 974.1 734.344 978.2 750.544C985.7 780.544 996.2 811.644 1009.2 840.544C1029 884.344 1054.8 922.744 1079.1 948.144" stroke="#7E7E9B" stroke-miterlimit="10"/>
<path d="M80.7998 194.544C122 168.344 167.5 149.344 214.6 143.944C242.5 140.644 271.1 142.444 298.1 150.244C315.7 155.344 332.5 162.944 347.9 173.244C395.8 205.044 429.7 258.844 467 298.844C483.1 316.044 497.3 332.244 516.7 343.644C533.5 353.544 553.1 359.144 573.7 362.044C602.1 366.044 633.2 365.544 661.3 365.244C676.8 365.044 691.7 365.344 705.8 366.444C735 368.744 759.3 372.844 783.8 381.544C819.5 394.244 858.5 418.044 891.3 454.244C894.7 457.944 897.9 461.744 901.1 465.444C935.3 505.844 953.5 538.744 959.1 571.644C965.2 607.144 960.5 648.144 966.7 699.844C968.6 715.344 971.4 731.544 975.3 748.144C982.4 778.744 993 810.144 1006.5 839.244C1027.2 883.344 1054.9 921.444 1081.8 945.844" stroke="#8584A3" stroke-miterlimit="10"/>
<path d="M86.1001 186.044C127.2 160.344 172.6 142.244 219.5 137.344C247.2 134.344 275.6 136.344 302.3 144.144C319.7 149.244 336.4 156.744 351.8 166.744C399.6 197.944 434.2 250.344 470.4 290.944C486.2 308.644 500 325.744 519.2 337.944C535.9 348.544 555.6 354.644 576.3 357.844C604.9 362.244 636.3 361.744 664.7 360.944C680.4 360.444 695.4 360.244 709.8 360.744C739.6 361.744 764.9 364.244 790.5 371.444C827.9 382.044 869 404.144 902.3 440.744C905.7 444.444 909 448.244 912.1 452.044C946.1 493.044 961.8 529.144 964.9 563.944C968.2 601.644 960.3 643.744 964.8 696.544C966.2 712.344 968.6 728.944 972.3 745.744C979 776.844 989.6 808.744 1003.7 837.944C1025.2 882.344 1054.9 920.144 1084.3 943.544" stroke="#8C8BAC" stroke-miterlimit="10"/>
<path d="M91.3999 177.544C132.4 152.444 177.7 135.044 224.3 130.744C251.8 128.144 279.9 130.244 306.5 138.044C323.8 143.044 340.4 150.444 355.7 160.344C403.5 190.844 438.7 241.944 473.8 283.244C489.4 301.544 502.7 319.444 521.8 332.344C538.4 343.644 558.2 350.144 579.1 353.744C607.8 358.544 639.5 358.044 668.2 356.644C684 355.844 699.3 355.544 713.8 355.044C744.2 354.144 770.5 355.644 797.2 361.344C836.2 369.744 879.6 390.244 913.2 427.244C916.6 431.044 919.9 434.844 923 438.744C956.8 480.444 970.1 519.744 970.5 556.344C971 596.244 960 639.544 962.8 693.244C963.6 709.344 965.7 726.244 969.2 743.344C975.5 774.944 986.2 807.244 1000.9 836.644C1023.3 881.344 1054.9 918.844 1086.8 941.244" stroke="#9391B4" stroke-miterlimit="10"/>
<path d="M96.7002 168.944C137.5 144.344 182.8 127.844 229.2 124.044C256.5 121.744 284.4 124.144 310.7 131.844C327.9 136.844 344.4 144.144 359.6 153.744C407.4 183.644 443.1 233.344 477.2 275.244C492.5 294.044 505.4 312.844 524.4 326.544C540.9 338.444 560.7 345.544 581.8 349.344C610.7 354.544 642.7 353.944 671.6 352.044C687.6 350.944 703 349.844 717.8 349.144C748.8 347.644 776.1 346.744 803.9 351.044C844.6 357.244 890.1 376.144 924.1 413.544C927.6 417.344 930.8 421.244 933.9 425.144C967.5 467.444 978.3 509.944 976.1 548.544C973.8 590.644 959.7 635.044 960.8 689.844C961.1 706.344 962.9 723.544 966.1 740.844C972 773.044 982.8 805.644 998 835.244C1021.3 880.144 1054.7 917.444 1089.2 938.844" stroke="#9A98BC" stroke-miterlimit="10"/>
<path d="M102.1 160.444C142.8 136.444 188 120.644 234.2 117.444C261.3 115.444 289 118.044 315.1 125.744C332.1 130.744 348.5 137.944 363.7 147.344C411.4 176.644 447.8 224.944 480.8 267.444C495.8 286.844 508.3 306.444 527.1 320.844C543.5 333.444 563.4 341.044 584.6 345.144C613.7 350.744 645.9 350.144 675.1 347.644C691.2 346.244 706.9 344.644 721.9 343.344C753.5 340.544 781.8 338.044 810.7 340.844C853.1 344.944 900.7 362.044 935.2 399.944C938.7 403.744 942 407.744 945.1 411.744C978.4 454.644 986.8 500.344 982.1 540.844C976.9 585.144 959.7 630.744 959.1 686.544C958.9 703.344 960.3 720.844 963.3 738.444C968.8 771.144 979.7 804.244 995.5 833.944C1019.6 879.144 1055 916.144 1092 936.544" stroke="#A19EC5" stroke-miterlimit="10"/>
<path d="M107.4 151.844C148 128.344 193.1 113.444 239 110.744C266 109.144 293.3 111.844 319.3 119.544C336.2 124.544 352.5 131.644 367.7 140.844C415.4 169.544 452.3 216.444 484.3 259.644C499 279.544 511.1 300.044 529.8 315.244C546.1 328.544 566.1 336.644 587.4 340.944C616.7 346.844 649.2 346.344 678.6 343.244C694.9 341.544 710.7 339.444 726 337.544C758.2 333.544 787.4 329.344 817.5 330.644C861.5 332.544 911.4 348.044 946.2 386.344C949.7 390.244 953 394.244 956.1 398.244C989.2 441.844 995.1 490.644 987.8 533.044C979.8 579.444 959.5 626.244 957.2 683.044C956.5 700.244 957.5 717.944 960.3 735.844C965.4 769.044 976.4 802.544 992.7 832.444C1017.7 877.944 1055 914.644 1094.5 934.044" stroke="#A8A5CD" stroke-miterlimit="10"/>
<path d="M112.7 143.344C153.1 120.344 198.2 106.344 243.9 104.144C270.7 102.844 297.8 105.744 323.5 113.444C340.3 118.444 356.4 125.444 371.6 134.344C419.2 162.344 456.8 207.944 487.7 251.744C502.1 272.244 513.8 293.544 532.4 309.444C548.6 323.444 568.6 331.944 590.2 336.644C619.7 342.944 652.4 342.344 682.2 338.744C698.7 336.744 714.6 334.144 730.1 331.644C762.9 326.344 793.1 320.444 824.3 320.344C870 319.944 922 333.944 957.2 372.644C960.8 376.544 964 380.544 967.1 384.744C1000 428.944 1003.4 480.944 993.6 525.244C982.8 573.844 959.4 621.844 955.3 679.644C954.1 697.144 954.7 715.244 957.3 733.344C962 767.144 973.1 800.944 990 831.044C1015.9 876.844 1055.1 913.244 1097.1 931.644" stroke="#AFABD5" stroke-miterlimit="10"/>
<path d="M118 134.844C158.3 112.444 203.3 99.1442 248.8 97.5442C275.4 96.5442 302.2 99.7442 327.8 107.344C344.4 112.344 360.5 119.244 375.6 127.944C423.2 155.344 461.3 199.544 491.2 243.944C505.4 264.944 516.6 287.144 535 303.844C551.1 318.544 571.2 327.544 592.9 332.544C622.6 339.244 655.6 338.644 685.6 334.444C702.2 332.144 718.4 329.044 734.1 325.944C767.5 319.344 798.7 311.844 831 310.244C878.4 307.644 932.6 320.044 968.2 359.144C971.8 363.044 975.1 367.144 978.1 371.344C1010.8 416.244 1011.8 471.344 999.3 517.644C985.6 568.344 959.1 617.544 953.4 676.444C951.7 694.244 952 712.644 954.3 731.044C958.6 765.344 969.8 799.644 987.2 829.744C1013.9 875.844 1055.1 911.944 1099.6 929.344" stroke="#B6B2DE" stroke-miterlimit="10"/>
<path d="M123.3 126.244C163.4 104.344 208.4 91.9442 253.6 90.8442C280 90.1442 306.6 93.5442 331.9 101.144C348.4 106.144 364.4 112.944 379.4 121.444C426.9 148.244 465.6 191.044 494.5 236.144C508.3 257.744 519.2 280.744 537.5 298.144C553.5 313.444 573.6 323.044 595.5 328.244C625.3 335.344 658.6 334.744 688.9 329.944C705.7 327.344 722 323.744 738 320.144C772 312.244 804.1 303.144 837.6 300.044C886.6 295.344 943 306.044 979 345.544C982.6 349.544 985.9 353.644 989 357.944C1021.4 403.444 1020 461.744 1004.9 509.944C988.4 562.844 958.7 613.144 951.4 673.044C949.1 691.244 949.1 709.944 951.2 728.644C955.1 763.444 966.4 798.144 984.4 828.444C1012 874.844 1055.1 910.644 1102.1 926.944" stroke="#BDB8E6" stroke-miterlimit="10"/>
<path d="M128.6 117.744C168.6 96.4442 213.5 84.7442 258.5 84.2442C284.7 83.9442 311.1 87.4442 336.2 95.0442C352.6 100.044 368.4 106.644 383.4 114.944C430.9 141.144 470.1 182.644 498 228.244C511.5 250.344 522 274.244 540.1 292.344C556 308.344 576.2 318.344 598.2 323.944C628.2 331.444 661.8 330.744 692.3 325.444C709.2 322.544 725.7 318.544 742 314.244C776.6 305.144 809.7 294.344 844.3 289.644C895 282.744 953.5 291.844 989.9 331.744C993.5 335.744 996.9 339.944 999.9 344.244C1032.1 390.444 1028.2 451.744 1010.6 501.944C991.3 556.944 958.5 608.544 949.4 669.444C946.6 687.944 946.2 706.944 948.1 725.944C951.6 761.344 963 796.344 981.5 826.844C1010 873.544 1055 909.044 1104.5 924.344" stroke="#C4BFEE" stroke-miterlimit="10"/>
<path d="M134 109.144C173.9 88.3442 218.7 77.5442 263.5 77.5442C289.5 77.5442 315.6 81.2442 340.6 88.8442C356.9 93.7442 372.6 100.344 387.5 108.444C434.9 134.044 474.6 174.144 501.6 220.444C514.8 243.144 524.9 267.744 542.9 286.744C558.7 303.444 579 313.944 601.2 319.844C631.4 327.744 665.2 327.044 696.1 321.244C713.2 318.044 729.8 313.544 746.3 308.644C781.4 298.144 815.6 285.844 851.3 279.644C903.7 270.644 964.4 278.044 1001.2 318.344C1004.9 322.344 1008.2 326.644 1011.2 330.944C1043.2 377.744 1036.8 442.244 1016.6 494.344C994.4 551.344 958.5 604.244 947.8 666.244C944.5 685.044 943.8 704.444 945.4 723.644C948.5 759.544 960 794.944 979.1 825.644C1008.4 872.644 1055.4 907.844 1107.4 922.144" stroke="#CBC5F7" stroke-miterlimit="10"/>
<path d="M139.3 100.644C202.1 68.7441 277.4 62.1441 344.8 82.7441C412.2 103.344 470.8 151.044 504.9 212.644C517.8 235.944 527.5 261.344 545.4 281.044C582.4 321.944 645.3 327.844 699.4 316.744C753.4 305.644 803.8 280.544 857.9 269.344C911.9 258.144 974.8 263.944 1012 304.644C1055.3 352.144 1047.1 427.444 1022.2 486.544C997.2 545.744 958.2 599.744 945.7 662.744C934.8 717.744 945.9 776.844 976.1 824.144C1006.3 871.444 1055.2 906.344 1109.7 919.644" stroke="#D2CCFF" stroke-miterlimit="10"/>
<path d="M156 96.8442C218.4 65.8442 292.8 60.0442 359.2 81.0442C425.6 102.044 483.5 149.344 516.6 210.644C529.5 234.544 538.5 261.044 555.8 281.444C590.9 322.844 651.7 329.844 704.1 320.744C756.4 311.644 805.8 288.944 859.3 279.144C913.5 269.144 976.7 273.844 1014.9 313.444C1059.1 359.544 1053.4 434.344 1029.4 493.944C1005.4 553.544 965.4 607.844 951.5 669.244C939.5 722.344 949.6 779.144 977.6 824.944C1005.6 870.744 1051.7 905.244 1104.2 919.044" stroke="#CDC9FE" stroke-miterlimit="10"/>
<path d="M172.8 93.1442C234.7 63.1442 308.3 58.0442 373.8 79.3442C439.3 100.644 496.4 147.744 528.4 208.744C541.3 233.344 549.5 260.744 566.2 281.844C599.3 323.644 658.1 331.844 708.7 324.744C759.4 317.744 807.8 297.344 860.7 288.844C915.1 280.144 978.7 283.544 1017.9 322.144C1063.1 366.744 1059.7 441.244 1036.8 501.144C1013.9 561.044 972.9 615.744 957.5 675.444C944.3 726.544 953.5 781.244 979.3 825.544C1005.2 869.844 1048.4 903.944 1098.9 918.244" stroke="#C7C6FE" stroke-miterlimit="10"/>
<path d="M189.5 89.3442C251 60.3442 323.7 56.0442 388.3 77.5442C452.9 99.0442 509.1 146.044 540.1 206.744C553 232.044 560.4 260.344 576.6 282.244C607.8 324.444 664.4 333.744 713.4 328.744C762.4 323.744 809.8 305.644 862.2 298.544C916.7 291.144 980.8 293.244 1020.9 330.844C1067.1 374.044 1066 448.144 1044.2 508.344C1022.4 568.544 980.3 623.544 963.4 681.744C949.2 730.744 957.2 783.344 980.9 826.244C1004.6 869.044 1045 902.644 1093.5 917.544" stroke="#C2C3FD" stroke-miterlimit="10"/>
<path d="M206.3 85.5441C267.3 57.4441 339.3 53.9441 402.9 75.8441C466.5 97.7441 521.9 144.544 551.9 204.844C564.8 230.844 571.4 259.944 587.1 282.744C616.4 325.244 670.9 335.844 718.2 332.944C765.5 330.044 811.9 314.244 863.8 308.444C918.6 302.244 982.9 303.244 1024.1 339.744C1071.3 381.544 1072.5 455.144 1051.8 515.744C1031 576.344 988 631.444 969.6 688.144C954.3 735.144 961.3 785.644 982.8 827.044C1004.3 868.444 1041.9 901.544 1088.4 917.044" stroke="#BDC0FD" stroke-miterlimit="10"/>
<path d="M223 81.8442C283.6 54.7442 354.7 51.9442 417.3 74.1442C479.9 96.3442 534.5 142.944 563.5 202.844C576.4 229.544 582.3 259.544 597.4 283.044C624.8 325.844 677.2 337.744 722.8 336.844C768.4 335.944 813.9 322.644 865.2 318.044C920.2 313.144 984.8 312.944 1027 348.344C1075.1 388.744 1078.8 461.944 1059 522.844C1039.3 583.744 995.3 639.144 975.3 694.344C959 739.344 964.9 787.644 984.2 827.544C1003.5 867.444 1038.3 900.144 1082.7 916.144" stroke="#B8BDFC" stroke-miterlimit="10"/>
<path d="M239.8 78.0442C299.9 51.9442 370.2 49.8441 431.9 72.4441C493.6 95.0441 547.2 141.444 575.3 200.944C588.2 228.344 593.3 259.144 607.8 283.544C633.4 326.544 683.5 339.744 727.5 340.944C771.4 342.144 815.9 331.144 866.7 327.844C921.9 324.344 986.8 322.744 1030.1 357.144C1079.2 396.144 1085.2 468.944 1066.5 530.244C1047.8 591.544 1003 647.044 981.4 700.744C964.2 743.644 968.8 789.944 986 828.344C1003.2 866.744 1035.1 898.944 1077.5 915.544" stroke="#B2BAFC" stroke-miterlimit="10"/>
<path d="M256.5 74.2442C316.2 49.1442 385.6 47.7442 446.4 70.6442C507.2 93.5442 559.8 139.844 587 198.944C599.9 227.044 604.3 258.644 618.2 283.844C642 326.944 689.9 341.644 732.1 344.844C774.4 348.044 817.9 339.544 868.1 337.544C923.5 335.344 988.8 332.544 1033 365.844C1083 403.444 1091.4 475.744 1073.8 537.444C1056.2 599.144 1010.5 654.644 987.3 707.044C969.2 747.844 972.6 792.044 987.6 829.044C1002.6 865.944 1031.6 897.744 1072.1 914.844" stroke="#ADB6FB" stroke-miterlimit="10"/>
<path d="M273.3 70.5442C332.5 46.3442 401.1 45.7442 460.9 68.9442C520.7 92.1442 572.4 138.344 598.7 197.044C611.6 225.844 615.2 258.144 628.6 284.344C650.7 327.544 696.3 343.744 736.8 348.944C777.4 354.244 820 345.344 869.6 347.344C925.2 349.544 990.8 342.444 1036.1 374.644C1087 410.844 1097.8 482.744 1081.2 544.744C1064.6 606.744 1018.2 662.444 993.2 713.344C974.2 752.144 976.4 794.244 989.2 829.644C1002 865.144 1028.2 896.344 1066.7 914.044" stroke="#A8B3FB" stroke-miterlimit="10"/>
<path d="M290 66.7442C348.8 43.5442 416.6 43.6442 475.4 67.2442C534.3 90.7442 585 136.844 610.4 195.044C623.3 224.544 626.2 257.644 639 284.644C659.4 327.944 702.6 345.544 741.5 352.944C780.4 360.244 822.2 353.644 871.1 357.044C926.9 360.844 992.8 352.244 1039.1 383.344C1091 418.144 1104.1 489.644 1088.6 551.944C1073.1 614.244 1025.9 670.044 999.2 719.544C979.4 756.244 980.2 796.244 990.9 830.244C1001.6 864.244 1024.9 895.044 1061.4 913.244" stroke="#A3B0FA" stroke-miterlimit="10"/>
<path d="M306.8 62.9442C365.2 40.7442 432.1 41.5442 490 65.4442C547.9 89.3442 597.6 135.244 622.2 193.044C635 223.244 637.3 257.044 649.4 285.044C668.1 328.344 709 347.544 746.2 356.944C783.4 366.344 824.2 365.144 872.6 366.744C928.8 368.644 994.8 361.944 1042.2 392.044C1095 425.444 1110.6 496.544 1096.1 559.144C1081.6 621.744 1033.8 677.644 1005.2 725.844C984.7 760.444 984.1 798.444 992.6 830.944C1001.1 863.444 1021.6 893.844 1056.1 912.544" stroke="#9DADFA" stroke-miterlimit="10"/>
<path d="M323.5 59.2442C381.4 38.0442 447.5 39.6442 504.5 63.7442C561.5 87.8442 610.2 133.744 633.9 191.144C646.7 222.044 648.4 256.544 659.8 285.544C676.9 328.944 715.3 349.644 750.9 361.044C786.4 372.444 826.2 373.744 874 376.544C930.4 379.844 996.7 371.844 1045.1 400.744C1098.8 432.844 1116.8 503.344 1103.4 566.344C1090 629.344 1041.5 685.244 1011.1 732.044C989.9 764.644 987.9 800.444 994.2 831.444C1000.5 862.444 1018.2 892.344 1050.7 911.644" stroke="#98AAF9" stroke-miterlimit="10"/>
<path d="M340.3 55.4442C397.8 35.1442 463 37.5442 519 62.0442C575 86.5442 622.7 132.344 645.6 189.244C658.3 220.844 659.4 256.044 670.2 285.944C685.8 329.244 721.7 351.544 755.5 365.044C789.3 378.544 828.2 382.344 875.4 386.344C932.1 391.144 998.6 381.744 1048 409.544C1102.6 440.244 1123 510.344 1110.6 573.744C1098.2 637.144 1049.3 693.044 1016.8 738.544C995.1 769.044 991.4 802.844 995.6 832.344C999.8 861.844 1014.6 891.344 1045.1 911.144" stroke="#93A7F9" stroke-miterlimit="10"/>
<path d="M357 51.7441C414 32.4441 478.4 35.5441 533.5 60.3441C588.6 85.1441 635.2 130.844 657.2 187.344C669.9 219.744 670.4 255.544 680.5 286.444C694.6 329.744 728 353.644 760.1 369.144C792.3 384.644 830.2 391.044 876.8 396.144C933.7 402.344 1000.4 391.644 1051 418.344C1106.5 447.644 1129.3 517.344 1118 581.044C1106.7 644.744 1057.3 700.744 1022.8 744.844C1000.5 773.344 995.3 804.944 997.3 833.044C999.3 861.144 1011.3 890.144 1039.8 910.444" stroke="#8EA4F9" stroke-miterlimit="10"/>
<path d="M373.8 47.9442C430.4 29.6442 494 33.4442 548.1 58.5442C602.2 83.6442 647.8 129.344 669 185.244C681.6 218.344 681.7 254.844 690.9 286.644C703.5 329.944 734.3 355.444 764.8 373.044C795.3 390.644 832.3 399.544 878.3 405.744C935.5 413.444 1002.4 401.344 1054 426.944C1110.4 454.944 1135.7 524.044 1125.4 588.144C1115.1 652.244 1065.4 708.344 1028.8 751.044C1006.1 777.544 999.2 807.044 999 833.544C998.8 860.144 1008 888.644 1034.5 909.644" stroke="#88A1F8" stroke-miterlimit="10"/>
<path d="M390.5 44.1442C446.6 26.7442 509.4 31.3442 562.6 56.8442C615.8 82.3442 660.2 127.844 680.7 183.344C693.2 217.144 692.8 254.244 701.3 287.144C712.5 330.344 740.7 357.444 769.5 377.144C798.3 396.844 834.4 408.244 879.8 415.544C937.3 424.744 1004.4 411.344 1057.1 435.744C1114.4 462.344 1142.1 531.044 1132.8 595.444C1123.6 659.844 1073.6 716.144 1034.7 757.344C1011.5 781.944 1003 809.144 1000.6 834.244C998.2 859.344 1004.6 887.444 1029.1 908.944" stroke="#839EF8" stroke-miterlimit="10"/>
<path d="M407.3 40.4442C463 24.0442 524.9 29.3442 577.1 55.1442C629.3 80.9442 672.7 126.444 692.4 181.444C704.8 216.044 704 253.744 711.7 287.644C721.5 330.844 747.1 359.544 774.2 381.244C801.3 402.944 836.5 417.044 881.3 425.344C939 436.144 1006.4 421.244 1060.1 444.544C1118.3 469.844 1148.4 538.044 1140.2 602.744C1132 667.544 1081.8 724.044 1040.7 763.744C1017.2 786.444 1006.8 811.344 1002.3 835.044C997.8 858.644 1001.3 886.244 1023.7 908.344" stroke="#7E9BF7" stroke-miterlimit="10"/>
<path d="M424 36.6441C479.2 21.2441 540.3 27.2441 591.6 53.3441C642.9 79.4441 685.1 124.844 704.1 179.444C716.4 214.744 715.2 253.144 722.1 287.944C730.5 331.144 753.4 361.444 778.8 385.144C804.2 408.944 838.4 425.544 882.7 434.944C940.6 447.244 1008.3 430.944 1063.1 453.144C1122.2 477.044 1154.7 544.744 1147.6 609.944C1140.5 675.144 1090.1 731.944 1046.6 769.944C1022.7 790.744 1010.6 813.444 1003.9 835.544C997.2 857.644 997.9 884.844 1018.3 907.444" stroke="#7898F7" stroke-miterlimit="10"/>
<path d="M440.7 32.8442C495.5 18.4442 555.7 25.1442 606.1 51.6442C656.5 78.1442 697.6 123.444 715.8 177.444C728 213.544 726.5 252.444 732.4 288.344C739.5 331.444 759.7 363.344 783.4 389.144C807.1 414.944 840.4 434.244 884.1 444.744C942.3 458.644 1010.2 440.844 1066 461.944C1126 484.544 1161 551.744 1154.9 617.244C1148.8 682.744 1098.4 740.044 1052.5 776.244C1028.4 795.244 1014.4 815.544 1005.5 836.244C996.7 856.944 994.5 883.644 1012.9 906.744" stroke="#7395F6" stroke-miterlimit="10"/>
<path d="M457.5 29.1442C511.9 15.6442 571.2 23.2442 620.7 49.9442C670.1 76.6442 710.1 122.044 727.6 175.544C739.7 212.344 737.9 251.944 742.9 288.744C748.7 331.844 766.1 365.344 788.2 393.244C810.3 421.144 842.6 443.044 885.7 454.544C944.1 470.044 1012.2 450.844 1069.2 470.744C1130.1 492.044 1167.5 558.744 1162.4 624.544C1157.4 690.344 1107 748.244 1058.6 782.644C1034.2 799.944 1018.3 817.844 1007.3 837.044C996.3 856.244 991.3 882.444 1007.7 906.144" stroke="#6E92F6" stroke-miterlimit="10"/>
<path d="M474.2 25.3442C528.2 12.8442 586.7 21.1442 635.2 48.1442C683.7 75.2442 722.5 120.544 739.3 173.544C751.2 211.144 749.3 251.344 753.3 289.144C757.9 332.244 772.5 367.344 792.9 397.244C813.3 427.144 844.6 451.744 887.1 464.244C945.7 481.444 1014.1 460.644 1072.1 479.444C1133.9 499.444 1173.7 565.644 1169.7 631.744C1165.7 697.844 1115.4 756.544 1064.4 788.844C1039.7 804.444 1022 819.844 1008.8 837.544C995.6 855.244 987.8 881.044 1002.2 905.244" stroke="#698EF5" stroke-miterlimit="10"/>
<path d="M491 21.5442C544.5 10.0442 602.2 19.0442 649.7 46.4442C697.2 73.8442 734.9 119.044 751 171.644C762.8 209.944 760.6 250.844 763.7 289.544C767.1 332.644 778.9 369.244 797.6 401.244C816.3 433.244 846.6 460.544 888.6 473.944C947.4 492.744 1016.1 470.544 1075.2 488.144C1137.9 506.844 1180.1 572.444 1177.2 638.944C1174.3 705.444 1124.1 765.044 1070.5 795.144C1045.5 809.144 1026 822.044 1010.6 838.244C995.3 854.444 984.6 879.844 997 904.544" stroke="#638BF5" stroke-miterlimit="10"/>
<path d="M507.7 17.8442C560.7 7.34421 617.6 17.0442 664.2 44.7442C710.8 72.4442 747.2 117.644 762.7 169.644C774.3 208.744 772.1 250.244 774 289.944C776.2 333.044 785.2 371.244 802.2 405.244C819.2 439.244 848.6 469.244 890 483.644C948.9 504.144 1018 480.344 1078.1 496.844C1141.7 514.244 1186.3 579.344 1184.4 646.144C1182.5 713.044 1132.4 773.644 1076.2 801.344C1050.9 813.844 1029.5 824.044 1012 838.844C994.5 853.644 980.9 878.444 991.4 903.744" stroke="#5E88F4" stroke-miterlimit="10"/>
<path d="M524.5 14.0442C577.1 4.44415 633.1 14.9442 678.7 42.9442C724.3 70.9442 759.6 116.144 774.4 167.644C785.8 207.444 783.5 249.644 784.4 290.344C785.4 333.544 791.5 373.244 806.8 409.244C822.1 445.344 850.5 478.044 891.4 493.444C950.5 515.644 1019.8 490.344 1081 505.644C1145.5 521.744 1192.6 586.344 1191.7 653.544C1190.8 720.744 1140.8 782.644 1082.1 807.844C1056.5 818.844 1033.3 826.444 1013.6 839.644C993.9 852.944 977.5 877.344 986 903.144" stroke="#5985F4" stroke-miterlimit="10"/>
<path d="M541.2 10.2441C593.3 1.64414 648.5 12.8441 693.2 41.2441C737.9 69.5441 772 114.644 786.1 165.744C797.3 206.344 795 249.144 794.8 290.744C794.6 333.944 797.9 375.144 811.5 413.344C825.1 451.444 852.5 486.844 892.9 503.244C952.1 527.244 1021.8 500.344 1084.1 514.444C1149.5 529.244 1199 593.244 1199.2 660.844C1199.4 728.444 1149.5 791.544 1088.2 814.044C1062.3 823.544 1037.3 828.444 1015.4 840.244C993.5 852.044 974.3 875.944 980.8 902.444" stroke="#5482F3" stroke-miterlimit="10"/>
<path d="M558 6.54418C609.7 -1.05582 664.1 10.8442 707.8 39.5442C751.5 68.2442 784.4 113.244 797.9 163.844C808.9 205.144 806.6 248.744 805.3 291.244C804 334.544 804.3 377.244 816.3 417.444C828.3 457.644 854.6 495.744 894.5 513.044C953.8 538.744 1023.9 510.344 1087.2 523.244C1153.5 536.844 1205.4 600.244 1206.7 668.144C1208 736.044 1158 800.844 1094.2 820.544C1067.9 828.644 1041.1 830.844 1017.1 841.144C993.1 851.444 971 874.944 975.5 901.944" stroke="#4E7FF3" stroke-miterlimit="10"/>
<path d="M574.7 2.74418C625.9 -3.95582 679.5 8.84418 722.3 37.7442C765.1 66.7442 796.7 111.744 809.6 161.744C820.4 203.844 818.1 248.044 815.6 291.444C813.1 334.844 810.6 379.044 820.9 421.244C831.2 463.444 856.4 504.344 895.9 522.544C955.3 550.044 1025.8 519.944 1090.2 531.744C1157.4 543.944 1211.7 606.944 1214 675.144C1216.3 743.344 1166.3 809.844 1100.1 826.544C1073.3 833.344 1044.9 832.644 1018.7 841.444C992.5 850.244 967.6 873.344 970.1 900.844" stroke="#497CF2" stroke-miterlimit="10"/>
</svg>
